<svg width="150" height="78" fill="none" xmlns="http://www.w3.org/2000/svg"><path fill-rule="evenodd" clip-rule="evenodd" d="M149.968 47.894c-.1-.3-.552-.21-1.549.308-2.515 1.307-4.233 1.615-8.378 1.504-1.697-.046-3.718-.179-4.489-.295a40.666 40.666 0 00-2.946-.306 159.48 159.48 0 01-3.788-.298c-3.551-.324-5.587-.382-15.22-.435-6.598-.036-9.922-.115-12.274-.29-3.578-.268-3.489-.252-8.908-1.613-7.033-1.766-8.737-2.023-11.273-1.696-1.624.21-2.578.669-3.426 1.65-1.964 2.267-2.297 2.541-4.326 3.555-1.854.928-2 1.033-3.28 2.38-1.378 1.449-2.212 2.023-3.858 2.658-.926.358-1.84.952-3.016 1.963-2.007 1.726-5.575 2.646-7.905 2.038-1.138-.297-1.195-.262-1.566.948-.325 1.06-.682 1.783-1.401 2.845-.844 1.245-.887 1.354-1.266 3.213-.27 1.324-.334 2.035-.308 3.397.03 1.658.017 1.745-.351 2.325-.441.696-1.417 1.345-2.178 1.448-.743.102-1.404-.392-1.89-1.412-.673-1.414-.846-2.36-.915-5.009-.074-2.846.084-4.255.689-6.15.485-1.522.71-3.985.4-4.375-.394-.492-.66-.253-1.338 1.202-.582 1.25-.829 1.594-2.046 2.846-.76.784-1.475 1.571-1.586 1.75-.112.18-.334.863-.493 1.519-.38 1.557-.692 2.292-1.546 3.64-.828 1.304-.986 1.815-.99 3.191-.005 1.268-.216 2.847-.5 3.748-.27.847-.923 1.532-1.662 1.74-.783.218-1.683-.175-2.215-.968-.381-.569-.385-.596-.188-1.271.394-1.344.422-2.978.084-4.745l-.309-1.613.45-1.436c.391-1.25.462-1.72.545-3.624.074-1.685.156-2.322.36-2.771.295-.652 6.038-6.648 7.785-8.129 1.682-1.426 3.804-2.341 6.128-2.644 1.243-.162 1.381-.21 1.42-.497.168-1.201-4.84.074-7.356 1.873-.368.264-1.316 1.075-2.104 1.802-5.849 5.39-8.362 6.72-11.636 6.157a82.147 82.147 0 00-1.907-.308c-.705-.1-2.04-.904-2.7-1.628-.58-.637-1.105-1.801-1.12-2.488-.02-.877.492-1.377 1.977-1.936 1.969-.741 2.895-1.342 4.902-3.185 1.494-1.37 1.73-1.51 3.682-2.167 1.67-.563 4.898-2.249 6-3.133.817-.655 1.33-1.275 2.413-2.92.497-.753 1-1.308 1.553-1.71.999-.73 1.647-1.479 2.004-2.316.325-.766.29-1.278-.09-1.278-.192 0-.407.283-.75.988-.395.81-.641 1.107-1.362 1.641-.484.36-.959.752-1.054.872-.251.314-.696.27-1.485-.145-.379-.2-.714-.365-.744-.365-.134-.002.747.64 1.18.858l.481.244-.642 1.017c-.353.559-.715 1.065-.803 1.123-.38.253-1.556-.163-2.752-.973-.848-.574-1.16-.669-.786-.239.302.348 2.107 1.286 2.716 1.413.247.052.45.138.45.193 0 .133-.81.912-1.334 1.285-.863.613-4.381 2.359-5.344 2.652-1.251.38-1.232.383-.946-.098.402-.674 1.188-1.468 1.549-1.562.251-.066.33-.172.297-.405-.037-.266-.185-.34-.956-.472-1.244-.213-2.027-.707-2.892-1.822-.712-.918-.842-1.234-1.437-3.506l-.134-.511-.01.51c-.008.45.055.846.336 2.14.068.31.042.315-1.945.332-2.394.02-3.54-.145-5.701-.824-1.728-.542-1.953-.683-2.483-1.552-.189-.308-.376-.526-.416-.484-.04.042.125.378.37.746l.443.67-.936.456c-1.048.51-2.393.712-3.964.595-1.286-.096-3.105.173-4.762.705-1.497.48-4.539.81-5.857.636C2.704 40.842.815 39.37.813 38.278c0-.423.596-1.139 1.312-1.574.884-.537 5.557-2.386 7.455-2.95a25.464 25.464 0 003.301-1.295c1.91-.939 3.069-1.225 4.976-1.229.771 0 2.192-.136 3.156-.3 2.07-.353 3.658-.404 7.084-.23 2.839.143 2.825.145 7.926-1.024 3.958-.907 5.752-1.56 8.767-3.186 3.049-1.644 3.606-1.847 6.553-2.39 1.456-.267 2.94-.652 4.044-1.049 2.348-.843 3.032-.979 5.816-1.159 5.303-.343 6.362-.561 9.329-1.92 3.99-1.83 4.08-1.854 7.645-2.017 3.718-.17 4.567-.416 7.78-2.253 3.58-2.047 5.07-2.287 11.852-1.907 5.567.311 6.174.258 8.635-.757 2.153-.888 3.592-1.65 5.094-2.7 1.991-1.393 4.965-2.724 7.741-3.467 1.017-.272 2.406-.494 4.069-.65 1.388-.13 2.957-.34 3.486-.465 1.116-.265 3.036-1.073 5.054-2.126 2.888-1.508 3.833-1.69 13.422-2.591.891-.084 2.062-.153 2.602-.153 1.071 0 1.392-.166 1.165-.606-.215-.419-.998-.394-7.774.251-3.175.302-6.468.872-7.697 1.332-.55.205-1.79.784-2.755 1.286-2.929 1.525-3.851 1.804-7.012 2.126-1.505.153-3.218.378-3.806.499-2.691.552-6.765 2.297-9 3.854-1.658 1.154-2.499 1.605-4.735 2.538-2.298.96-3.068 1.045-7.29.805-4.233-.241-7.194-.242-8.486-.002-1.61.299-2.68.726-5.19 2.075-3.3 1.772-3.703 1.886-7.225 2.038-3.54.154-4.09.289-7.154 1.748-3.197 1.522-4.486 1.848-8.064 2.043-4.298.233-4.914.34-7.873 1.38a25.534 25.534 0 01-3.943 1.009c-2.71.468-3.4.718-6.282 2.267-1.312.706-2.9 1.487-3.53 1.737-1.548.615-4.302 1.352-7.763 2.079l-2.876.604-2.595-.126c-3.418-.167-4.992-.127-6.523.162-.694.132-2.336.298-3.647.37-1.312.072-2.638.204-2.946.294-.309.09-1.287.513-2.175.94a28.506 28.506 0 01-3.333 1.304c-2.008.614-6.064 2.193-7.3 2.842C.589 36.53-.169 37.63.032 38.74c.217 1.203 2.284 2.863 3.898 3.131 1.51.251 4.626-.02 6.422-.56 2.004-.602 2.972-.737 5.19-.722 2 .013 2.72-.117 3.812-.682l.656-.34 1.308.427c2.381.777 3.805 1.009 6.2 1.009h2.183l.577.794c.592.815 1.588 1.588 2.273 1.764.44.113.463.173.189.493-.109.127-.511.77-.894 1.428-1.251 2.148-3.837 4.323-6.19 5.206-1.97.74-2.52 1.182-2.839 2.286-.31 1.078.456 2.967 1.646 4.056.567.52 1.96 1.337 2.63 1.545.303.094.291.29-.278 4.455-.416 3.039-.376 3.71.34 5.67.51 1.403.511 1.406.482 3.52-.039 2.747.115 3.54.828 4.282.53.551.567.565 1.37.504.962-.072 2.399-.744 3.01-1.409l.398-.431.503.579c.675.777 1.215 1.042 2.137 1.049a2.9 2.9 0 002.286-1.065c.73-.903 1.217-3.012 1.224-5.307.003-1.142.223-1.801.984-2.952.598-.904 1.167-2.265 1.454-3.476.332-1.407.493-1.672 1.698-2.794.585-.544 1.326-1.404 1.646-1.91.32-.506.6-.9.624-.876.042.043-.214 1.049-.813 3.193-.372 1.337-.54 5.898-.274 7.492.234 1.408.784 3.042 1.273 3.78.453.686 1.368 1.237 2.051 1.237 1.16 0 2.701-1.042 3.318-2.242.274-.534.306-.795.28-2.28-.022-1.213.051-2.102.261-3.21.309-1.621.593-2.293 1.58-3.74.336-.493.75-1.332.921-1.864l.31-.968.513.114c.282.062 1.188.102 2.013.088 2.584-.043 4.766-.869 6.836-2.587 1.32-1.096 1.549-1.235 2.868-1.751 1.465-.574 2.156-1.066 3.806-2.712 1.432-1.427 1.645-1.583 2.946-2.157 1.734-.764 2.755-1.548 4.049-3.11.625-.753 1.239-1.334 1.633-1.542 1.331-.707 4.418-.796 7.154-.207.733.157 3.069.722 5.19 1.254 2.122.533 4.426 1.093 5.12 1.245 2.402.526 6.935.742 16.764.8 9.639.055 11.416.106 15.08.433 1.235.11 2.939.245 3.788.298.848.054 2.206.192 3.016.306 2.136.303 7.08.425 8.627.212 1.435-.198 3.792-.97 4.992-1.635.818-.453.979-.633.867-.966zm-33.021-7.773c-1.449-.503-1.465-.505-3.91-.489-2.088.014-2.853.087-5.12.493-2.443.436-2.824.468-4.566.384-3.208-.156-6.86-.681-12.341-1.776-3.4-.68-8.423-.61-11.22.154-.424.116-.56.18-.303.143a133.65 133.65 0 012.665-.302c3.293-.35 5.21-.148 9.843 1.035 4.212 1.076 6.307 1.429 9.912 1.67 2.3.155 3.26.049 5.127-.566 1.849-.61 2.521-.708 5.592-.823 2.673-.1 2.752-.095 4.105.29 1.874.532 2.001.406.216-.214zm.228-6.218c-.154.046-.691.18-1.192.3-.502.12-1.178.316-1.503.436-.326.12-1.778.496-3.227.834-2.577.602-2.692.615-5.23.616-1.427 0-3.227-.08-3.998-.176-4.171-.523-9.417-1.22-10.654-1.413-2.056-.323-5.215-.422-7.021-.22-2.864.319-5.86 1.156-8.08 2.26-1.164.578-1.136.484.113-.384 1.152-.8 2.874-1.71 4.67-2.466 1.463-.615 1.528-.777.086-.212-1.57.614-4.309 2.07-5.908 3.14-1.987 1.331-2.671 1.923-2.562 2.218.069.188.433.053 2.061-.767 3.24-1.63 5.03-2.248 8.217-2.832 1.458-.267 7.013-.318 8.767-.08.579.078 2.694.37 4.7.65 7.011.975 8.861 1.019 12.905.307 3.153-.555 7.642-1.757 7.996-2.14.097-.105.053-.127-.14-.07zm-29.05-7.769c-.163.007-.196.042-.084.088.1.042.222.037.269-.011.046-.049-.037-.083-.184-.077zm-4.161-1.52c-1.413-1.085-1.861-1.297-2.913-1.375-2.749-.205-5.445 1.471-7.456 4.634-1.63 2.565-2.301 3.21-3.336 3.207a2.462 2.462 0 01-1.255-.368c-.34-.201-.643-.338-.676-.304-.033.034.354.274.86.534.87.445.954.46 1.538.29.862-.25 1.506-.852 2.645-2.472 1.308-1.861 2.516-3.132 3.558-3.742.924-.541 2.718-1.084 3.584-1.084.633 0 2.966.751 3.85 1.24.34.188.618.315.618.282 0-.034-.458-.412-1.017-.842zm-8.851 17.628c-.177-.562-.181-.542-.12.548.049.85.004 1.297-.179 1.796-.134.365-.213.695-.176.734.122.127.542-1.153.6-1.83a3.88 3.88 0 00-.125-1.248zm-.86-1.76c-.112-.155-.207-.209-.21-.118-.002.09.09.246.206.346.268.23.27.136.005-.227zm-3.035-.273c-.095.061-.434.939-1.162 3.005-.349.99-1.524 2.655-2.36 3.343-1.767 1.452-3.543 2.023-6.642 2.136-2.255.083-3.676-.109-5.159-.695-.389-.153-.736-.249-.772-.212-.204.212 3.379 1.266 5.233 1.54.537.08 1.579.146 2.315.148 3.431.01 6.775-2.206 7.854-5.205.308-.855.874-4.176.693-4.06zm-3.815-9.583c-.182.153-.233.412-.216 1.094l.021.894.084-.875c.047-.482.144-.974.216-1.094.114-.19.1-.192-.105-.02zM67.2 49.312c-.964.78-2.373 1.667-3.099 1.95-1.122.438-3.016.403-4.694-.086-1.6-.466-1.395-.248.253.269.99.31 1.57.4 2.68.41 1.403.014 1.432.007 2.601-.608.65-.343 1.512-.922 1.914-1.288.755-.687 1.029-1.2.345-.647zm-2.546-17.419c-.176-.113-.197.055-.223 1.815-.022 1.43-.363 2.462-1.32 3.989-.651 1.04-1.21 1.5-3.03 2.493-1.544.843-1.586.882-.546.503 1.407-.511 2.432-1.168 3.424-2.193 1.386-1.433 1.625-2.052 1.749-4.52.07-1.388.053-2.018-.054-2.087zm-6.687 24.213c-.777-.58-1.472-1.305-3.122-3.262-.81-.96-2.48-2.336-2.636-2.173-.036.037.178.224.475.414.518.332 1.284 1.151 3.25 3.477.83.982 2.392 2.34 2.69 2.34.282 0 .076-.25-.657-.796zm-2.677-.098c-.213-.184-1.416-1.766-3.016-3.966-.456-.627-.9-1.04-1.473-1.37l-.82-.473.561.082c.309.044.745.142.97.215.224.074.438.103.475.065.134-.14-.77-.393-1.866-.525-1.344-.16-2.099-.15-1.145.017 1.472.257 2.521 1.217 4.614 4.223.587.843 1.261 1.65 1.5 1.795.47.287.57.256.2-.063zm-2.282-15.006c-.065.996-.158 1.375-.47 1.927-.616 1.09-1.227 1.492-3.61 2.377-3.783 1.405-7.98 3.493-9.258 4.606-.471.41-.339.338 1.6-.87 1.444-.902 2.003-1.15 4.138-1.846 6.074-1.978 6.78-2.289 7.409-3.262.295-.457.318-.639.296-2.334-.023-1.771-.027-1.793-.105-.598zM51.979 57.17c-.49-.603-.83-.708-2.234-.692-1.415.016-1.254.236.192.262 1.026.02 1.496.207 1.969.786.236.29.383.385.385.25.002-.12-.139-.393-.312-.606zm-3.25 6.3c-.522-.207-.865-.189-1.348.07-.55.296-.86.965-.942 2.034-.058.76-.025.932.24 1.246.254.3.29.313.206.073-.353-.998-.124-2.365.48-2.859.259-.211.53-.284.958-.257.724.046.922-.104.406-.308zm.246 3.156c-.131-.137-.904-.102-1.239.055-.202.096-.139.11.231.05.281-.046.644-.01.807.081.276.154.41.03.201-.186zM45.89 53.394c-.283-.326-.646-.662-.807-.747-.16-.086.053.213.474.664.422.45.785.82.807.82.12 0-.013-.207-.474-.737zm-3.4 2.195c-.073 0-.236.328-.364.728-.128.4-.291.765-.362.81a.317.317 0 00-.13.239c0 .233.41-.162.621-.6.261-.54.388-1.177.235-1.177zm-2.441 3.505c-.434-.017-1.772 1.212-1.788 1.642-.004.098-.056.805-.115 1.573-.13 1.667-.374 2.256-1.56 3.76-.975 1.237-1.019 1.487-.498 2.843.19.495.405 1.162.477 1.483l.131.584.014-.615c.008-.338-.116-.96-.276-1.38-.4-1.054-.288-1.462.724-2.673 1.367-1.634 1.568-2.153 1.662-4.28l.079-1.798.631-.567c.347-.312.58-.57.519-.572zm-3.617-10.087c-.392-.512-.782-.956-.865-.987-.173-.065.314.696.903 1.411.217.263.395.616.395.782 0 .189-.434.738-1.147 1.453-.63.632-1.102 1.196-1.048 1.252.224.232 2.475-2.357 2.475-2.846 0-.074-.32-.553-.713-1.065zm-2.176 10.302c-.164.404-.269 1.255-.341 2.771-.09 1.897-.166 2.389-.569 3.692-.442 1.432-.456 1.542-.29 2.334.513 2.44.532 3.836.076 5.432-.28.982-1.176 1.905-2.257 2.326-1.124.437-1.706.355-2.07-.29-.258-.459-.288-.763-.295-2.99-.007-2.465-.01-2.49-.517-4.012-.28-.843-.55-1.803-.598-2.133-.052-.355.06-1.761.274-3.428.199-1.555.399-3.146.445-3.535l.084-.708.931.124c1.983.266 3.586.018 5.317-.82l.878-.426-.416.54a5.806 5.806 0 00-.652 1.123zm.084-9.628c-.232-.23-.421-.351-.421-.269 0 .15.332.495.666.693.288.17.201.021-.245-.424zm-1.347.742c-.262-.315-.475-.512-.473-.438.005.191.803 1.167.883 1.081.037-.04-.148-.329-.41-.643zm-1.106 13.335c-.154 0-.935 1.813-.945 2.194-.006.227.203.989.466 1.693.366.985.487 1.192.52.898.024-.216-.144-.77-.386-1.267-.534-1.1-.535-1.412-.008-2.497.426-.877.476-1.021.353-1.021zm-.23-11.524c-.18-.47-.654-.995-1.133-1.254-.776-.42-1.407-.27-3.557.845-1.171.607-2.026 1.137-2.026 1.256 0 .113.607.888 1.35 1.721 1.162 1.306 1.41 1.516 1.788 1.514.242-.001.534-.066.65-.144.159-.107.098-.141-.252-.143-.533-.003-1.391-.759-2.449-2.159l-.638-.845.582-.184c.32-.102 1.261-.517 2.092-.922 1.58-.772 1.856-.806 2.566-.323.453.309.952 1.415.828 1.837-.053.183-.258.562-.455.843l-.36.51.368-.345c.415-.391.808-1.17.795-1.573a2.427 2.427 0 00-.149-.634zM26.302 35.83c-.447-.063-.847-.08-.89-.035-.105.109 1.117.29 1.441.213.144-.035-.104-.114-.55-.178zm-4.348-.815c-2.114-.623-3.016-.637-5.43-.08-2.738.631-3.196.787-4.791 1.625-1.804.949-2.547 1.17-5.099 1.516-1.802.244-1.883.267-.982.282 1.35.022 3.481-.332 4.567-.76l2.097-.822c1.295-.508 5.982-1.593 7.406-1.715.617-.052 1.331.023 2.36.248.811.178 1.5.299 1.53.268.029-.031-.717-.284-1.658-.562z" fill="#000"/></svg>