<svg width="355" height="50" fill="none" xmlns="http://www.w3.org/2000/svg"><path d="M0 2.629h23.084v2.47H2.582v14.827H21.03v2.472H2.582v15.089h21.24v2.47H0V2.63zm39.615 38.118L29.18 19.4h2.899l7.8 16.93 7.536-16.93h2.74L39.932 40.747h-.316zM65.24 50c-1.72 0-3.337-.315-4.848-.946-1.51-.631-3.092-1.718-4.744-3.26l1.476-1.682c1.511 1.436 2.917 2.4 4.216 2.891 1.3.526 2.565.789 3.795.789 2.143 0 3.847-.35 5.112-1.052 1.265-.666 2.179-1.577 2.74-2.734.563-1.121.862-2.383.897-3.785l.052-4.837c-.878 1.507-2.16 2.716-3.847 3.628-1.651.91-3.478 1.367-5.481 1.367-1.932 0-3.707-.474-5.323-1.42a11.191 11.191 0 01-3.795-3.89c-.948-1.648-1.423-3.47-1.423-5.469 0-2.138.493-4.013 1.476-5.625a10.391 10.391 0 014.005-3.786c1.687-.946 3.55-1.42 5.587-1.42 1.792 0 3.514.456 5.165 1.368 1.652.876 2.881 2.05 3.69 3.522l.21-4.258h2.213v20.872c0 1.683-.386 3.26-1.159 4.732-.738 1.508-1.932 2.717-3.584 3.628-1.616.911-3.76 1.367-6.43 1.367zm-8.696-20.452c0 1.612.387 3.084 1.16 4.416a9.225 9.225 0 003.11 3.155c1.335.771 2.81 1.157 4.426 1.157 1.547 0 2.952-.334 4.217-1a9.14 9.14 0 003.11-2.786c.808-1.157 1.264-2.401 1.37-3.733v-3.05c-.422-1.962-1.441-3.592-3.057-4.889-1.616-1.297-3.496-1.945-5.64-1.945-1.615 0-3.091.368-4.427 1.104a8.366 8.366 0 00-3.11 3.05c-.772 1.296-1.159 2.803-1.159 4.52zm38.234 10.83c-2.143 0-4.04-.473-5.692-1.419a10.493 10.493 0 01-3.9-3.838c-.914-1.647-1.37-3.488-1.37-5.52 0-1.998.492-3.821 1.476-5.468a11.19 11.19 0 013.953-3.944c1.686-.981 3.548-1.472 5.586-1.472 2.46 0 4.515.719 6.166 2.156 1.687 1.437 2.899 3.312 3.637 5.625l-17.603 6.783c.667 1.437 1.669 2.629 3.004 3.575 1.37.911 2.969 1.367 4.796 1.367 1.124 0 2.196-.21 3.215-.631a10.434 10.434 0 002.793-1.63l1.265 1.788c-.984.77-2.126 1.402-3.426 1.892a10.687 10.687 0 01-3.9.737zM86.24 29.496c0 .666.07 1.315.211 1.946L101.63 25.5a9.576 9.576 0 00-2.688-3.26c-1.16-.947-2.583-1.42-4.27-1.42-1.58 0-3.003.386-4.268 1.157a8.919 8.919 0 00-3.057 3.102c-.738 1.297-1.107 2.769-1.107 4.416zm27.422-10.094l.211 4.574c.702-1.613 1.844-2.874 3.425-3.786 1.617-.911 3.373-1.367 5.271-1.367 1.932 0 3.495.579 4.69 1.735 1.195 1.122 1.809 2.594 1.845 4.417v14.984h-2.53v-14.3c-.035-1.333-.457-2.437-1.265-3.313-.808-.876-1.985-1.332-3.531-1.367-1.37 0-2.652.333-3.847.999a7.877 7.877 0 00-2.899 2.786c-.702 1.192-1.054 2.577-1.054 4.154v11.04h-2.477V19.402h2.161zm24.808 0h2.477v20.557h-2.477V19.4zm-.527-7.571c0-.491.194-.894.58-1.21.386-.35.808-.525 1.265-.525.491 0 .913.175 1.265.525.351.316.527.719.527 1.21 0 .525-.176.963-.527 1.314a1.831 1.831 0 01-1.265.473c-.457 0-.879-.175-1.265-.526-.386-.35-.58-.77-.58-1.261zm14.262 38.012l4.427-10.094-9.539-20.347h2.793l8.011 17.507 7.747-17.507h2.425l-13.281 30.441h-2.583zm30.264-9.463c-1.967 0-3.759-.439-5.375-1.315-1.581-.911-2.846-2.173-3.795-3.785-.913-1.613-1.37-3.488-1.37-5.626 0-2.278.492-4.224 1.475-5.836.984-1.647 2.319-2.892 4.006-3.733 1.686-.876 3.602-1.314 5.744-1.314 1.687 0 3.303.49 4.849 1.472 1.581.946 2.759 2.155 3.531 3.628l.264-4.47h2.213v20.558h-2.477v-4.364c-.772 1.227-1.967 2.331-3.584 3.312-1.615.982-3.443 1.473-5.481 1.473zm.527-2.103c1.547 0 2.934-.316 4.164-.947a8.212 8.212 0 003.057-2.734c.773-1.157 1.212-2.488 1.317-3.996v-2.944a8.017 8.017 0 00-1.686-3.47 8.808 8.808 0 00-3.004-2.418c-1.195-.596-2.495-.894-3.9-.894-1.546 0-2.969.368-4.269 1.104a7.972 7.972 0 00-3.11 2.997c-.772 1.297-1.159 2.821-1.159 4.574 0 1.612.387 3.084 1.159 4.416a9.221 9.221 0 003.11 3.155 8.495 8.495 0 004.321 1.157zm66.05-.947c-.843.561-1.915 1.07-3.215 1.525a27.424 27.424 0 01-4.058 1.104 20.75 20.75 0 01-4.058.42c-2.952 0-5.622-.473-8.011-1.419-2.354-.982-4.374-2.313-6.061-3.996a18.186 18.186 0 01-3.9-5.94c-.879-2.28-1.318-4.733-1.318-7.362 0-2.839.492-5.45 1.476-7.833 1.019-2.384 2.407-4.434 4.164-6.152a18.414 18.414 0 016.113-4.048c2.319-.947 4.778-1.42 7.379-1.42 1.967 0 3.812.246 5.533.736 1.757.491 3.338 1.157 4.744 1.998l-.949 2.314c-1.23-.737-2.67-1.332-4.322-1.788-1.616-.456-3.197-.684-4.743-.684-2.389 0-4.603.421-6.64 1.262-2.038.841-3.813 2.016-5.323 3.523-1.511 1.507-2.688 3.277-3.532 5.31-.843 2.033-1.264 4.241-1.264 6.625 0 3.084.685 5.87 2.055 8.36 1.37 2.453 3.302 4.398 5.797 5.835 2.495 1.437 5.411 2.156 8.749 2.156 1.476 0 3.021-.175 4.638-.526 1.616-.35 3.004-.859 4.163-1.525V25.447h-8.432v-2.471h11.015v14.353zm16.033 3.207c-1.933 0-3.479-.56-4.638-1.682-1.16-1.157-1.775-2.646-1.845-4.47V19.402h2.477V33.65c.07 1.332.492 2.436 1.265 3.312.808.876 2.003 1.35 3.584 1.42a7.1 7.1 0 003.742-1.052 8.025 8.025 0 002.793-2.839c.738-1.227 1.107-2.611 1.107-4.154V19.401h2.477v20.557h-2.214l-.158-4.364c-.703 1.437-1.862 2.629-3.478 3.575a10.068 10.068 0 01-5.112 1.367zm22.493-21.135l.211 4.574c.702-1.613 1.844-2.874 3.425-3.786 1.616-.911 3.373-1.367 5.271-1.367 1.932 0 3.495.579 4.69 1.735 1.194 1.122 1.809 2.594 1.845 4.417v14.984h-2.53v-14.3c-.035-1.333-.457-2.437-1.265-3.313-.808-.876-1.985-1.332-3.531-1.367-1.37 0-2.653.333-3.847.999a7.877 7.877 0 00-2.899 2.786c-.703 1.192-1.054 2.577-1.054 4.154v11.04h-2.477V19.402h2.161zm24.808 20.557V0h2.477v29.075l11.542-10.095 1.528 1.314-7.905 6.94 9.17 12.724h-2.899l-7.958-11.251-3.478 3.049v8.202h-2.477zm20.643-10.41c0-1.998.474-3.82 1.423-5.468a10.772 10.772 0 013.953-3.89c1.686-.982 3.566-1.473 5.639-1.473 2.108 0 3.988.49 5.639 1.472a10.375 10.375 0 013.9 3.89c.949 1.648 1.423 3.471 1.423 5.469 0 1.998-.474 3.82-1.423 5.468-.949 1.647-2.266 2.962-3.953 3.943-1.651.946-3.531 1.42-5.639 1.42-2.073 0-3.935-.456-5.586-1.367a10.906 10.906 0 01-3.953-3.839c-.949-1.647-1.423-3.522-1.423-5.625zm2.477.052c0 1.613.369 3.085 1.107 4.417a8.928 8.928 0 003.056 3.102c1.301.771 2.741 1.157 4.322 1.157s3.004-.386 4.269-1.157a8.362 8.362 0 003.057-3.102c.773-1.332 1.159-2.804 1.159-4.417 0-1.612-.386-3.067-1.159-4.363a8.252 8.252 0 00-3.057-3.155c-1.265-.806-2.688-1.21-4.269-1.21-1.616 0-3.074.421-4.374 1.263a8.79 8.79 0 00-3.004 3.207A8.653 8.653 0 00335.5 29.6z" fill="#000"/></svg>