<svg width="150" height="77" fill="none" xmlns="http://www.w3.org/2000/svg"><path fill-rule="evenodd" clip-rule="evenodd" d="M149.811 35.59c-.274-.91-.948-2.095-2.439-4.284-1.212-1.78-2.173-3.401-4.625-7.804-2.29-4.113-4.034-5.474-10.017-7.82-4.864-1.908-6.649-2.901-10.252-5.7-2.105-1.636-3.318-2.402-4.911-3.102-2.146-.943-3.704-1.264-10.055-2.068-1.65-.21-3.804-.508-4.786-.663-.983-.156-3.361-.494-5.287-.752-1.925-.257-5.576-.899-8.114-1.426C82.634.58 80.095.228 75.365.035c-6.036-.245-9.435.75-15.161 4.443-4.32 2.786-5.63 3.343-10.59 4.507-3.345.786-4.663 1.18-6.5 1.94-1.745.725-2.198.967-5.591 3.003-6.984 4.19-9.894 5.249-18.523 6.732-2.397.412-5.547 1.018-7 1.347-3.637.821-11.601 2.98-11.844 3.21-.27.255-.095.656.288.656.172 0 1.894-.433 3.827-.963 6.59-1.807 10.02-2.586 14.8-3.361 8.473-1.376 12.145-2.712 19.003-6.916 2.633-1.614 5.143-2.878 6.906-3.478.734-.25 2.727-.79 4.43-1.2 5.823-1.404 6.555-1.703 10.74-4.39 3.069-1.972 3.953-2.478 5.457-3.122 4.967-2.13 11.717-2.064 22.599.22 2.347.492 5.282 1.058 6.52 1.257 1.554.25 2.602.507 3.376.828 2.449 1.015 3.505 1.367 5.822 1.936 1.327.326 2.435.57 2.461.543.027-.028-1.059-.373-2.413-.767-2.305-.672-4.904-1.716-4.563-1.835.083-.029 1.748.185 3.699.475 1.951.29 4.672.663 6.047.83 5.398.653 7.494 1.234 10.015 2.773 1.2.732 1.895 1.416 2.702 2.656.636.976 1.428 1.898 1.428 1.662 0-.057-.257-.528-.572-1.046-.314-.519-.571-.986-.571-1.04 0-.053.466.261 1.036.698 2.734 2.097 4.562 3.05 9.803 5.107 3.723 1.461 5.165 2.296 6.663 3.856.96 1 1.816 2.319 3.424 5.277 1.353 2.49 2.358 4.152 3.643 6.028 1.039 1.517 1.08 1.592.841 1.544-.106-.022-.33.01-.498.07-.897.317-.217 2.055 1.111 2.837l.481.282-.381-.431c-.427-.484-1.12-1.78-1.12-2.096 0-.32.397-.401.755-.157.445.304 1.135 1.82 1.215 2.666.056.599.014.749-.303 1.079-.312.325-.494.382-1.196.38-1.966-.009-4.675-1.962-5.786-4.172-.257-.513-.714-.942-2.114-1.992-2.521-1.89-4.787-4.338-5.048-5.456-.073-.312-.02-.425.275-.59.339-.188.75-.736.553-.736-.048 0-.387.218-.755.484-.564.408-.792.482-1.455.474-1.002-.013-4.49-1.125-6.991-2.23-1.014-.447-2.135-.855-2.491-.906l-.648-.093.579-.716c.319-.393.555-.792.525-.885-.03-.094-.33.17-.667.587-.721.892-1.042 1.08-2.38 1.398-1.564.371-2.322.422-3.824.257-1.489-.165-2.261-.423-2.782-.933-.403-.395-.406-.62-.014-1.193.171-.249.243-.427.16-.395-.305.119-1.261 1.122-1.422 1.494-.182.42-1.153 1.296-1.837 1.658-.568.3-2.869.736-3.566.675-.52-.045-.589-.114-1.301-1.313-.413-.696-.821-1.347-.906-1.446-.18-.21-.526-.11-.634.183-.041.111.613 1.38 1.454 2.82.84 1.438 1.592 2.733 1.67 2.877.211.385 2.344 3.103 3.211 4.091 1.079 1.23 3.181 2.824 4.362 3.308 4.752 1.948 7.491 4.867 8.653 9.224.771 2.891-.164 4.901-2.27 4.88-1.031-.01-1.898-.42-3.157-1.492a92.729 92.729 0 00-2.297-1.867c-.747-.586-2.369-1.962-3.605-3.058l-2.248-1.992.407-.396c.374-.364 1.116-1.653.951-1.653-.039 0-.199.26-.354.577a3.688 3.688 0 01-.728.967l-.446.39-.811-.648c-1.363-1.09-2.429-1.74-3.938-2.4-.794-.346-2.537-1.206-3.873-1.911-2.314-1.22-3.704-1.744-5.222-1.965-.536-.078-.793-.24-1.465-.917-.448-.452-.817-.865-.82-.918-.003-.053-.201-.33-.44-.617l-.434-.52.303.669c.167.368.467.998.666 1.4l.363.728-1.092-.085c-.867-.069-1.19-.164-1.565-.462-.642-.51-1.395-1.356-2.004-2.25-.279-.41-.506-.67-.506-.58 0 .185.613 1.097 1.529 2.274.343.44.605.82.581.845-.132.137-1.625-.339-2.61-.832-1.709-.855-5.514-4.067-7.106-5.999-.687-.832-1.394-1.797-1.57-2.144-.178-.346-.412-.666-.521-.71-.11-.043-.402.14-.655.41-.663.711-1.833 1.301-4.65 2.345-3.788 1.403-4.688 1.932-6.698 3.94-1.363 1.359-2.512 2.85-4.018 5.213-1.881 2.952-3.464 5.032-5.21 6.848-2.414 2.51-3.156 3.03-12.007 8.407-2.2 1.337-5.254 3.27-6.786 4.294-4.782 3.198-5.848 4.043-8.573 6.796-2.715 2.743-4.021 3.89-5.93 5.209-2.839 1.962-4.708 2.884-10.503 5.18-4.743 1.88-8.602 2.838-13.109 3.254-1.98.182-2.276.31-1.878.808.156.197.398.22 1.48.137 2.553-.193 6.662-.958 9.257-1.722 2.648-.78 9.027-3.369 11.56-4.692 3.502-1.83 5.588-3.422 9.074-6.928 2.778-2.794 4.121-3.91 7.407-6.152 3.343-2.281 4.978-3.321 10.43-6.634 2.594-1.575 5.422-3.355 6.287-3.954 3.425-2.376 5.6-4.816 9.21-10.33 3.694-5.644 5.157-6.915 10.092-8.765 2.637-.989 3.888-1.558 4.648-2.116l.375-.276.736 1.002c1.29 1.757 2.355 2.985 2.943 3.392.314.218.856.64 1.204.938 2.81 2.402 3.814 3.087 5.231 3.563 1.033.348 1.619.43 4.412.627 3.077.216 4.28.553 6.872 1.925a90.742 90.742 0 003.937 1.953c.976.444 2.225 1.114 2.775 1.488 1.013.69 4 3.171 4.944 4.11.571.567.563.375.115 2.75-.646 3.415-.018 5.183 1.841 5.185 1.138.001 2.046-.74 3.102-2.53.218-.368.415-.693.438-.72.023-.03.338.16.7.419 1.591 1.14 3.23 1.426 4.455.775.74-.394 1.525-1.335 1.742-2.09.552-1.918-.331-5.3-2.055-7.868-.702-1.046-.708-1.084-.332-2.385.234-.81.039-1.854-.606-3.249-.539-1.163-.711-2.422-.372-2.716.182-.157.357.048 1.165 1.37a32.247 32.247 0 002.123 2.982c1.006 1.227 1.378 1.853 2.633 4.441 1.412 2.91 1.476 3.087 1.893 5.169.481 2.408.913 3.48 1.753 4.356.973 1.013 2.932 1.72 3.655 1.316.384-.214.568-.937.448-1.759-.051-.35-.066-.636-.034-.636s.275.172.54.383c1.227.974 3.166 1.25 4.361.622 1.102-.58 1.123-.718.595-3.78-.252-1.462-.518-3.428-.59-4.37-.151-1.96-.173-2.038-1.229-4.241-.785-1.637-1.382-3.622-1.576-5.237l-.101-.846.698.523c.384.288 1.009.75 1.388 1.028.394.289 1.012.985 1.443 1.625 1.09 1.62 2.404 2.838 3.889 3.605 1.108.572 1.369.646 2.397.686.968.038 1.231-.005 1.627-.264.824-.536 1.085-1.728.678-3.087zm-9.593 13.591c-.794.346-1.875.264-2.845-.216-1.666-.824-2.783-2.655-3.462-5.674-.194-.861-.473-1.935-.621-2.385-.161-.492-.212-.839-.126-.87.215-.075.566-.471.566-.638 0-.08-.189-.03-.419.112-.523.322-.634.239-1.512-1.137-.835-1.31-1.285-2.582-1.629-4.616-.154-.908-.411-1.882-.57-2.163l-.29-.511.603-.006c.331-.003.761-.096.955-.208.319-.184.263-.196-.584-.125-1.221.102-1.71-.142-2.873-1.428-.944-1.044-1.652-2.277-2.117-3.685-.477-1.444-.462-1.455 1.006-.792 1.682.76 5.658 2.038 6.736 2.165.807.095.872.133 1.296.775.245.372.876 1.15 1.402 1.73l.957 1.053.227 1.637c.323 2.32.839 4.043 1.835 6.12.857 1.788.865 1.817.988 3.534.114 1.593.684 5.363.971 6.42.151.557.1.65-.494.908zm-5.095-30.416c-.294-.246-1.581-.895-1.965-.99l-.357-.09.357.177a37.9 37.9 0 011.251.684c.836.475 1.124.563.714.219zm-.367 31.815c-.641 0-1.745-.487-2.339-1.032-.84-.77-1.279-1.829-1.759-4.243-.46-2.312-.678-2.917-1.855-5.143a58.166 58.166 0 01-1.513-3.094c-.382-.87-.658-1.33-.743-1.242-.196.205-1.262-1.102-2.472-3.032a43.889 43.889 0 00-2.047-2.951c-.561-.723-1.145-1.57-1.298-1.883l-.279-.568.35-.092c.418-.11 1.356-1.048 1.356-1.357 0-.367-.348-.245-.852.297-.645.693-1.322 1.006-2.434 1.127l-.929.101.786.021c.783.021.788.025 1.137.71.193.379.547.965.786 1.302.645.908.833 1.544.572 1.932-.444.66-.222 2.033.617 3.812.285.604.388 1.05.388 1.672 0 1.187-.202 1.34-.9.684-.987-.928-2.332-1.788-4.017-2.568l-1.648-.763-.011-1.128c-.009-.953-.08-1.277-.463-2.086-.589-1.247-1.928-2.898-2.811-3.467-.578-.372-.85-.45-1.568-.45-.478 0-1.101.056-1.385.124-.508.122-.523.112-.965-.635-.246-.418-.448-.791-.448-.831 0-.04.186-.072.413-.072.227 0 1.043-.135 1.813-.3 1.498-.322 2.316-.755 3.186-1.691l.483-.519.517.356c1.3.894 4.686 1.154 7.066.543.693-.179 1.542-.324 1.886-.324.612 0 .627.012.712.558.158 1.015.798 2.775 1.393 3.83.376.667 1.11 1.576 2.043 2.53.8.82 1.493 1.625 1.538 1.789.046.163.183.908.305 1.654.367 2.244.972 3.738 2.222 5.484.778 1.088.979 1.57 1.292 3.1.367 1.797.635 2.637 1.243 3.901.445.927.665 1.876.871 3.758.012.103-.096.186-.239.186zm-12.01-5.135c-.525-1.514-1.179-2.465-2.107-3.062-.768-.495-.742-.221.053.566 1.2 1.186 2.064 3.358 1.731 4.353-.32.954-1.27.873-2.679-.23-.992-.777-1.69-1.696-1.815-2.388-.17-.948.5-2.212 1.372-2.588.24-.104.408-.217.374-.253-.159-.165-1.269.616-1.581 1.112-.793 1.262-.611 2.175.716 3.608 1.038 1.12 1.977 1.677 2.86 1.697 1.252.028 1.677-1.082 1.076-2.815zm-.892-32.982c-.513-.753-1.703-2.069-1.872-2.069-.063 0 .16.352.496.782.336.43.83 1.1 1.098 1.488.454.66.724.877.724.58 0-.069-.201-.42-.446-.78zm-5.501 37.94c-.689.747-.766.789-1.352.745-1.264-.095-1.555-1.342-.986-4.225.158-.802.313-1.483.343-1.515.031-.032.834.556 1.786 1.305l1.731 1.363-.395.767c-.217.422-.724 1.124-1.127 1.56zm-1.628-16.863c-.224.145-1.394-.821-2.651-2.189-1.041-1.131-2.49-2.965-2.49-3.15 0-.15 1.267-.272 1.728-.166.919.21 3.02 2.746 3.389 4.09.192.697.202 1.3.024 1.415zm-1.7 7.014c-.151.256-.422.574-.603.706-.182.133-.264.241-.183.241.22 0 1.06-.95 1.059-1.198 0-.118-.123-.006-.273.25zm-2.441-32.645c-.432 0-.609.028-.393.062.216.034.57.034.786 0 .216-.034.039-.062-.393-.062zm-1.869-.256c-.405-.055-.765-.071-.8-.035-.035.037.266.114.669.172.403.058.762.073.799.035.037-.038-.264-.116-.668-.172zm-1.274-.212c-.197 0-.277.034-.179.075a.529.529 0 00.357 0c.098-.041.018-.075-.178-.075zm-.655-.16c-.167.007-.2.042-.087.09.104.043.227.037.274-.012.048-.05-.037-.085-.187-.078zM79.061 18.878a97.48 97.48 0 01-.774-1.637c-.695-1.497-1.086-2.128-1.472-2.38-.18-.117-.118.023.174.391.285.358.596 1.045.823 1.82.253.86.514 1.414.841 1.787.521.591.7.6.408.02zm-.959.69c-.647-.97-1.05-1.417-1.523-1.69l-.643-.37.737.722a9.438 9.438 0 011.243 1.569c.278.465.638.92.799 1.01.161.09.287.144.28.12a54.055 54.055 0 00-.892-1.36zm-6.243 1.848c-1.36-.03-6.027 1.973-9.314 3.996-1.637 1.007-3.192 2.227-5.275 4.139-1.761 1.617-5.24 5.12-4.832 4.868.99-.615 2.852-2.151 4.511-3.72 3.604-3.41 6.092-5.361 8.301-6.511 1.403-.73 4.384-1.967 5.774-2.395.659-.203 1.034-.372.835-.377z" fill="#000"/></svg>