<svg width="13" height="14" fill="none" xmlns="http://www.w3.org/2000/svg"><path fill-rule="evenodd" clip-rule="evenodd" d="M6.825 11.35c.573 0 1.124-.093 1.639-.265a5.2 5.2 0 01-3.958.814 6.192 6.192 0 01-2.483-1.842 5.16 5.16 0 01-.281-2.907 5.177 5.177 0 005.083 4.2zm4.802-7.107A5.184 5.184 0 007.845 1.1a6.17 6.17 0 00-2.32-.45 6.18 6.18 0 00-2.089.362 6.175 6.175 0 019.487 6.138 6.149 6.149 0 00-1.296-2.907zm.281 2.907a5.138 5.138 0 01-.412 1.256 6.186 6.186 0 01-2.582 3.582 6.188 6.188 0 002.713-1.93 5.16 5.16 0 00.281-2.908zm-11.181 0a6.148 6.148 0 011.296-2.908 5.193 5.193 0 011.863-2.327A5.19 5.19 0 00.854 4.594 6.184 6.184 0 00.727 7.15z" fill="#A78C73"/><path fill-rule="evenodd" clip-rule="evenodd" d="M6.175 2.264a5.17 5.17 0 00-1.638.265 5.199 5.199 0 013.958-.814 6.192 6.192 0 012.482 1.842 5.16 5.16 0 01.281 2.907 5.177 5.177 0 00-5.083-4.2zM1.373 9.372a5.184 5.184 0 003.782 3.142c.716.29 1.5.45 2.32.45.733 0 1.436-.127 2.089-.362A6.175 6.175 0 01.077 6.464a6.148 6.148 0 001.296 2.908zm-.281-2.908c.084-.44.224-.862.412-1.256a6.185 6.185 0 012.582-3.582 6.188 6.188 0 00-2.713 1.93 5.16 5.16 0 00-.281 2.908zm11.181 0a6.149 6.149 0 01-1.296 2.908A5.193 5.193 0 019.113 11.7a5.19 5.19 0 003.033-2.68 6.18 6.18 0 00.127-2.556z" fill="#A78C73"/></svg>