<svg width="595" height="889" fill="none" xmlns="http://www.w3.org/2000/svg"><path fill-rule="evenodd" clip-rule="evenodd" d="M337.273 218.603c1.319.335 5.132 1.216 8.474 1.958 10.871 2.413 12.811 3.726 16.718 11.312 1.337 2.596 2.908 5.551 3.491 6.566l1.059 1.846 1.837-.605c2.615-.861 8.301-.83 11.429.062 1.23.351 3.101.637 4.157.637 2.121-.001 2.863-.328 5.675-2.498 3.431-2.648 8.502-3.897 13.378-3.295 3.4.419 5.702 1.157 9.227 2.958 6.726 3.436 11.468 7.605 13.866 12.19 1.226 2.343 1.342 2.767 1.333 4.862-.009 2.165-.105 2.473-1.702 5.439-2.573 4.778-2.558 4.283-.163 5.775 2.45 1.526 3.546 2.782 8.206 9.41 5.531 7.866 5.905 8.936 6.296 18.026.229 5.341.436 7.091 1.291 10.906 1.396 6.227 1.285 7.236-1.357 12.377-1.781 3.464-1.997 4.083-1.96 5.605.024 1.037.372 2.525.883 3.782 1.788 4.397 1.451 6.791-1.769 12.546-1.635 2.922-1.82 3.408-1.297 3.408.901 0 2.216 1.1 3.022 2.528.667 1.181.711 1.641.72 7.469.006 4.207.184 7.343.551 9.72.838 5.438.348 7.271-4.653 17.402-3.092 6.265-4.971 9.331-8.088 13.206-5.972 7.42-12.048 12.211-16.306 12.856l-1.286.195-.585 2.167c-.836 3.092-1.668 4.715-4.531 8.832-3.49 5.021-11.841 15.417-13.937 17.351-1.015.936-2.367 1.826-3.267 2.149l-1.534.552.041 4.365c.099 10.313 1.641 14.707 7.049 20.08 1.325 1.316 3.92 3.566 5.767 5.001 1.846 1.433 5.543 4.34 8.215 6.459 6.828 5.414 10.042 7.613 18.805 12.868 4.221 2.531 9.977 6.003 12.79 7.716 11.338 6.9 14.869 8.801 23.024 12.394 9.943 4.381 12.618 6.029 21.993 13.555 3.204 2.572 9.023 6.836 12.929 9.475 14.446 9.758 26.156 18.436 34.471 25.546 10.68 9.13 13.708 13.915 17.864 28.231.44 1.514 1.758 4.717 2.93 7.119 3.964 8.127 4.673 10.489 4.671 15.573-.002 7.334-2.803 15.693-7.41 22.115-4.344 6.056-7.844 8.86-25.734 20.612-6.656 4.372-9.417 6.469-12.988 9.862-5.516 5.242-6.726 7.11-13.982 21.574-3.423 6.824-5.448 9.455-18.088 23.513-4.588 5.102-10.428 11.73-12.977 14.727-6.179 7.266-8.239 9.272-13.912 13.545-6.531 4.918-14.207 10.864-14.391 11.145-.083.128.339 1.235.937 2.463 2.357 4.834 3.458 11.679 2.816 17.499-.75 6.796-2.569 8.608-11.586 11.55l-3.357 1.095-.097 2.706c-.053 1.488.049 3.742.226 5.009 1.133 8.062 5.475 10.824 17.296 11.003 4.152.062 5.322.187 7.197.766 6.601 2.039 11.775 6.018 16.085 12.37 1.639 2.417 3.001 5.517 4.101 9.333.783 2.72.867 3.518.891 8.456.031 6.071-.249 7.577-2.271 12.251-3.126 7.225-7.329 10.871-18.712 16.229-8.387 3.948-12.026 4.927-21.359 5.749-7.191.634-10.853 1.346-16.255 3.163-7.983 2.685-9.396 3.01-16.521 3.799-2.462.272-7.57.962-11.351 1.532-9.159 1.381-11.392 1.603-19.666 1.959-15.531.669-27.905.223-42.688-1.536-8.768-1.043-11.447-1.667-26.528-6.177-11.093-3.318-14.29-4.704-19.744-8.561-3.193-2.258-7.46-6.376-9.251-8.928-.825-1.177-1.94-3.315-2.476-4.751-.881-2.357-.975-2.964-.974-6.246.001-4.425.688-7.049 3.012-11.512 1.943-3.73 4.878-7.256 8.401-10.089 3.015-2.426 7.393-5.129 9.596-5.926 1.286-.465 1.62-.787 2.636-2.538 1.775-3.059 3.46-4.943 9.22-10.306 4.569-4.253 5.447-5.226 6.442-7.133.727-1.394 1.211-2.817 1.312-3.861l.16-1.652-2.974-1.873c-5.992-3.771-9.213-6.983-11.492-11.457-1.462-2.87-2.738-7.408-3.037-10.801l-.214-2.437-7.067-3.271c-8.599-3.981-11.843-6.096-13.108-8.545-1.646-3.187-1.385-7.403.894-14.428 2.24-6.907 2.349-10.981.392-14.725-2.093-4.006-4.359-6.154-14.749-13.978-5.769-4.344-10.49-8.773-13.175-12.362-3.892-5.201-7.462-12.983-8.914-19.428-.797-3.544-.745-10.046.111-13.785 1.588-6.928 4.775-12.815 11.726-21.661 1.923-2.446 2.859-3.964 3.521-5.71.496-1.307 1.838-3.829 2.982-5.604 4.777-7.412 5.944-11.571 6.775-24.131.44-6.646.824-9.061 1.975-12.413 1.335-3.888 5.839-12.377 8.924-16.823 3.432-4.945 9.549-10.76 18.211-17.313 8.369-6.331 10.967-8.949 13.374-13.477 2.109-3.969 3.075-10.04 2.31-14.528-.218-1.284-1.683-6.098-3.254-10.697-1.572-4.599-3.782-11.569-4.911-15.489-1.129-3.92-2.789-9.1-3.689-11.512-.9-2.412-2.061-5.942-2.581-7.845-.807-2.951-1.122-3.639-2.148-4.695-1.857-1.911-3.45-4.083-7.563-10.31-4.493-6.802-6.165-10.071-7.717-15.082-.632-2.045-2.068-6.58-3.19-10.08-2.338-7.288-5.013-16.76-5.936-21.018-.483-2.225-.668-4.564-.781-9.883-.155-7.241-.321-8.581-1.599-12.876-1.27-4.264-1.445-5.608-1.693-13.027-.299-8.911-.318-8.952-5.157-11.45-4.602-2.376-6.33-4.339-7.045-8.007-.526-2.693.056-5.161 2.296-9.748 2.346-4.802 3.009-7.139 3.465-12.209.698-7.763 1.027-9.979 1.809-12.209 1.051-2.994 3.076-6.482 6.767-11.658 1.662-2.329 3.219-4.766 3.461-5.415.305-.82.439-2.722.439-6.235 0-4.228-.112-5.449-.688-7.46-.987-3.445-.942-6.221.131-8.194.463-.851 1.235-1.99 1.716-2.531.718-.81.805-1.073.49-1.482-1.838-2.388-2.153-5.329-.838-7.829 1.479-2.812 5.346-5.895 16.294-12.987 5.84-3.784 10.772-8.107 12.076-10.584.438-.833 1.119-2.878 1.513-4.544 1.264-5.342 2.878-7.746 7.566-11.277a129.578 129.578 0 005.548-4.477c4.136-3.571 5.601-4.418 11.76-6.806 1.807-.701 4.541-1.929 6.075-2.73 1.534-.801 3.571-1.676 4.527-1.943 2.318-.651 5.723-.59 8.655.154zm-8.686.587c-1.072.342-3.101 1.241-4.508 1.998-1.407.756-4.014 1.92-5.794 2.586-4.75 1.778-7.105 3.04-9.791 5.246a449.31 449.31 0 01-5.755 4.614c-6.362 5.011-7.717 6.874-8.906 12.248-.356 1.609-1.011 3.606-1.456 4.438-1.731 3.237-5.266 6.373-12.511 11.097-13.674 8.919-16.764 11.798-16.764 15.621 0 2.772 2.142 5.366 5.701 6.901 1.148.496 1.602.82 1.253.896-.562.122-2.598-.676-4.194-1.644-.903-.548-.904-.548-1.707.36-2.399 2.714-2.846 5.411-1.666 10.049.922 3.628 1.055 12.292.217 14.225-.297.688-2.029 3.346-3.848 5.908-3.618 5.095-6.013 9.411-6.788 12.232-.274 1-.716 4.203-.981 7.119-.853 9.369-1.111 10.462-3.716 15.731-2 4.048-2.512 5.718-2.512 8.204 0 4.194 1.774 6.601 6.76 9.172 3.081 1.59 4.577 2.983 5.026 4.683.166.627.382 4.003.479 7.502.178 6.387.588 9.415 1.762 13.027l.591 1.818.194-1.364c.108-.749.286-2.317.397-3.484.112-1.166.622-4.574 1.135-7.573.566-3.315 1.013-7.32 1.137-10.214.13-3.01.322-4.692.521-4.575.607.355-.002 9.594-1.018 15.446-.525 3.028-1.115 7.39-1.309 9.695-.463 5.477-.226 17.919.406 21.306.664 3.555 3.852 15.351 5.353 19.803.682 2.022 2.038 6.312 3.014 9.535 2.623 8.653 3.519 10.424 10.74 21.203 3.379 5.044 5.079 7.064 7.508 8.921 6.519 4.984 14.579 6.51 25.254 4.782 6.088-.986 14.472-3.077 19.541-4.875 9.433-3.344 10.28-3.966 29.695-21.806 2.994-2.751 7.315-6.581 9.601-8.511 6.745-5.694 7.444-6.603 9.291-12.086.646-1.916 2.092-5.631 3.215-8.255 2.514-5.877 3.211-8.217 3.624-12.154.692-6.609 1.375-18.623 1.201-21.155-.175-2.569.16-3.589.615-1.871.49 1.85-.786 22.977-1.608 26.621-.583 2.586-1.192 4.257-3.478 9.543-.972 2.249-2.157 5.317-2.631 6.816-1.874 5.921-3.023 7.449-10.065 13.372-2.548 2.143-8.968 7.883-14.266 12.755-10.686 9.825-13.139 11.878-16.383 13.703-4.261 2.398-11.109 4.814-18.913 6.671-13.227 3.149-19.833 3.44-26.978 1.189-2.647-.834-6.968-2.943-7.405-3.614-.108-.164-.318-.299-.468-.299-.446 0 .496 3.288 2.716 9.475 1.149 3.204 2.884 8.619 3.856 12.035.971 3.416 3.067 10.028 4.656 14.693 3.414 10.019 3.78 11.501 3.782 15.3.004 7.847-3.17 14.375-9.743 20.038-.879.758-4.189 3.334-7.355 5.724-8.031 6.065-13.702 11.492-17.083 16.348-2.877 4.133-7.472 12.715-8.797 16.431-1.194 3.35-1.431 4.777-1.951 11.744-1.032 13.828-2.048 17.625-6.586 24.627-1.723 2.658-3.475 5.937-3.475 6.504 0 .471 6.426-7.178 8.513-10.132.963-1.364 3.269-5.249 5.123-8.634 4.247-7.751 5.743-10.249 10.307-17.212 4.781-7.293 6.737-11.054 12.134-23.328 5.272-11.987 5.19-11.815 5.581-11.815.441 0 .424.042-4.725 11.664-5.56 12.548-7.043 15.501-10.462 20.833l-5.091 7.948c-1.387 2.166-3.978 6.596-5.759 9.846-5.599 10.217-6.718 11.85-13.383 19.54-6.558 7.567-11.191 13.851-13.738 18.632-5.922 11.12-5.586 23.058 1.003 35.568 3.834 7.278 8.438 12.219 18.477 19.829 7.77 5.89 10.168 8.028 12.139 10.82 2.342 3.316 2.751 4.71 2.709 9.219-.033 3.542-.122 4.05-1.373 7.876-1.726 5.283-2.437 9.603-1.973 11.985.813 4.164 2.895 5.76 14.577 11.175 4.399 2.039 9.723 4.635 11.832 5.77 8.269 4.451 14.862 7.126 23.091 9.371 9.409 2.565 10.435 2.529 33.503-1.198 12.627-2.04 16.122-2.382 29.418-2.886 19.621-.744 27.875-2.491 40.77-8.628 6.956-3.311 10.418-5.569 19.506-12.724a512.705 512.705 0 0110.233-7.815c6.275-4.636 9.565-7.765 15.346-14.593 4.194-4.953 10.67-12.261 18.387-20.752 6.759-7.436 9.732-11.593 13.173-18.42 6.295-12.491 6.669-13.14 9.458-16.42 4.557-5.358 8.532-8.653 17.562-14.56 15.758-10.305 20.69-14.18 24.555-19.286 5.295-6.995 8.262-15.947 7.91-23.867-.194-4.378-.706-6.071-3.759-12.421-2.82-5.864-3.822-8.365-4.917-12.27-2.386-8.506-5.317-13.83-10.405-18.9-2.946-2.935-11.162-9.995-15.332-13.174-5.566-4.243-18.963-13.8-24.493-17.473-5.391-3.58-9.557-6.672-16.948-12.578-6.348-5.073-9.904-7.116-20.05-11.52-5.062-2.198-10.554-5.101-16.563-8.757-2.55-1.551-8.738-5.266-13.75-8.255-10.211-6.088-14.431-8.824-18.916-12.266-8.722-6.692-14.466-11.304-17.01-13.662-5.99-5.55-8.177-10.585-8.195-18.865-.004-1.6-.098-3.935-.21-5.191l-.204-2.282-1.235-.351c-.68-.192-1.235-.542-1.235-.777 0-.365.161-.363 1.109.012 1.412.559 3.472.562 4.582.008 1.489-.745 4.314-3.77 8.74-9.362 2.352-2.97 4.627-5.901 5.057-6.514l2.672-3.798c2.182-3.101 2.815-4.362 3.688-7.353l.631-2.162-2.927-.138c-1.853-.087-3.615-.374-4.799-.78-1.936-.665-6.028-2.941-7.513-4.181-1.511-1.261-.139-.769 2.637.946 1.49.919 3.689 2.038 4.888 2.487 1.909.714 2.616.814 5.697.804 4.029-.012 5.714-.488 9.16-2.585 4.223-2.57 11.814-10.881 15.06-16.489 1.703-2.943 6.596-12.888 7.591-15.428.996-2.545 1.173-6.003.514-10.058-.391-2.406-.511-4.778-.443-8.74.089-5.099.051-5.515-.602-6.67-.383-.678-.941-1.425-1.239-1.66-.836-.657-2.669-.5-4.739.405-1.851.809-4.358 1.107-4.358.518 0-.167.468-.303 1.04-.302.571 0 2.056-.432 3.298-.961l2.26-.961 1.97-3.532c2.241-4.019 3.102-6.682 2.773-8.581-.12-.696-.649-2.493-1.174-3.992-1.297-3.702-1.155-4.82 1.172-9.216 2.296-4.337 2.589-5.764 1.945-9.471-.27-1.553-.71-3.641-.979-4.641-.292-1.087-.611-4.471-.796-8.425-.32-6.833-.682-8.926-2.044-11.821-1.075-2.284-7.651-11.535-9.574-13.469-1.743-1.753-3.893-3.22-4.336-2.96-.146.085-.437.984-.648 1.999-.521 2.51-1.357 4.253-2.732 5.694-1.281 1.344-3.047 2.154-3.047 1.398 0-.241.211-.439.469-.439.834 0 2.683-1.819 3.489-3.432.432-.865 1.015-2.731 1.296-4.145.371-1.865 1.059-3.654 2.505-6.51 1.792-3.541 1.991-4.125 1.971-5.777-.055-4.558-4.863-10.527-11.72-14.548-6.572-3.854-9.754-4.82-15.111-4.587-4.302.187-6.268.742-8.875 2.505-5.677 3.838-5.878 3.888-11.083 2.709-3.071-.696-4.125-.799-7.173-.701-2.983.096-3.823.235-5.089.842-.835.4-1.569.669-1.632.599-.064-.071-1.649-3.101-3.522-6.733-4.064-7.879-5.075-9.095-8.998-10.834-1.407-.623-3.925-1.434-5.596-1.8a780.972 780.972 0 01-8.634-1.983c-6.358-1.496-8.415-1.629-11.244-.726zm17.674 8.445c1.407.838 2.524 2.523 2.524 3.809 0 .601-1.805 2.48-2.107 2.194-.132-.126.072-.543.453-.928 1.355-1.367.714-3.419-1.443-4.616-.767-.427-1.312-.904-1.209-1.061.235-.361.068-.418 1.782.602zm-4.396 2.792c1.364 1.972 1.293 3.987-.224 6.384-1.203 1.902-3.846 4.592-4.353 4.432-.292-.092.223-.828 1.556-2.221 1.095-1.146 2.27-2.599 2.609-3.229.746-1.384.795-3.296.118-4.537-.65-1.191-.414-1.854.294-.829zm-23.778 8.682c0 .134-.508.71-1.13 1.281-.621.571-1.564 1.767-2.096 2.659-.99 1.663-3.351 4.299-3.849 4.299-.577 0-.244-.654.76-1.494.571-.478 1.532-1.667 2.135-2.642 1.526-2.468 4.18-5.074 4.18-4.103zm85.272 4.584c3.417 1.165 5.85 3.325 6.677 5.927 1.053 3.314-.773 6.109-7.034 10.771-7.265 5.411-9.553 7.372-10.385 8.903-1.056 1.945-1.018 4.107.123 6.949.461 1.146.757 2.159.659 2.252-.331.314-.733-.39-1.606-2.82-1.052-2.925-.966-4.917.301-6.966.772-1.247 6.586-6.103 11.863-9.909 4.025-2.901 5.742-5.395 5.513-8.005-.245-2.807-2.507-5.031-6.611-6.502-1.445-.518-2.227-.611-4.031-.477-2.003.149-2.173.12-1.618-.271.875-.617 4.137-.539 6.149.148zm-64.627 2.481c2.759 2.782 8.314 3.233 8.775.711.091-.495.307-.859.482-.808.598.174.18 1.726-.649 2.407-1.112.914-4.156.94-6.23.052-1.373-.587-3.837-2.557-3.837-3.067 0-.483.54-.221 1.459.705zm-20.805 4.723c3.544.428 7.729 2.619 10.751 5.628 2.781 2.769 2.284 3.152-.598.462-2.936-2.742-4.946-3.994-7.708-4.803-3.954-1.157-7.194-.572-9.719 1.756-.765.705-1.199.94-1.199.648 0-.695 1.905-2.291 3.517-2.947 1.576-.641 3.465-.924 4.956-.744zm-12.55-.023c1.162.32.492.715-1.212.715-3.174 0-5.149 1.453-6.969 5.125-.881 1.779-.984 2.328-1.206 6.451-.296 5.467-.77 7.033-2.605 8.604-1.697 1.452-1.919.919-.293-.7 1.48-1.475 1.97-3.047 1.979-6.36.017-6.57 2.136-11.373 5.798-13.143 1.27-.614 3.529-.961 4.508-.692zm60.369 3.352c1.296 1.398 2.679 4.165 3.522 7.046.821 2.81 1.403 3.863 2.806 5.082 1.331 1.157 1.158 1.647-.247.699-1.333-.899-2.353-2.686-3.379-5.918-.99-3.118-1.942-5.003-3.284-6.503-.908-1.015-.948-1.028-1.292-.418-.196.346-.781 2.02-1.302 3.721-.52 1.701-1.28 3.557-1.69 4.126-.809 1.124-3.27 2.545-3.684 2.126-.142-.143-.084-.318.127-.39.934-.317 2.535-1.546 3.163-2.429.376-.529.92-1.852 1.208-2.939a39.983 39.983 0 011.185-3.652c.801-2.027 1.394-2.142 2.867-.551zm-46.878 3.182c1.546.403 4.336 2.926 4.336 3.922 0 .736-.065.689-1.396-1.033-2.21-2.86-6.804-3.181-8.778-.613-.355.463-.756.737-.891.61-.339-.322.868-1.782 1.986-2.403 1.238-.686 3.198-.886 4.743-.483zm24.46 3.136c1.565 2.065 2.24 2.558 3.507 2.558 1.037 0 1.086.039.612.488-.932.883-2.629.053-4.277-2.093-.781-1.017-1.42-1.958-1.42-2.091 0-.581.606-.143 1.578 1.138zm-52.741-1.073c0 .169-.701 1.225-1.558 2.348-2.369 3.102-2.886 4.289-3.412 7.845-.263 1.773-.741 3.782-1.062 4.465-.921 1.959-3.481 4.028-4.144 3.349-.119-.121-.022-.286.215-.366.938-.315 2.744-2.109 3.279-3.255.31-.667.657-1.962.769-2.879.575-4.696 1.093-6.008 3.793-9.613 1.559-2.082 2.12-2.584 2.12-1.894zm16.778 6.887c.536 2.035 3.977 4.612 6.166 4.618.571.001 1.039.131 1.039.288 0 1.52-5.011-.518-6.831-2.778-.896-1.113-1.469-2.961-.918-2.961.179 0 .424.375.544.833zm75.982 1.979c3.107 1.983 3.57 6.639.954 9.608-1.337 1.517-1.56.921-.303-.81.856-1.179 1.084-1.822 1.187-3.344.109-1.624.008-2.075-.733-3.272-.521-.843-1.289-1.583-1.955-1.884-.603-.273-1.096-.606-1.096-.742 0-.45.85-.256 1.946.444zm-51.085 3.449c2.699 1.725 5.575 4.203 5.245 4.521-.135.13-.782-.24-1.439-.822-1.341-1.191-3.084-2.443-5.105-3.667-.75-.454-1.364-.966-1.364-1.136 0-.512.381-.354 2.663 1.104zm-27.571 3.646c.452.467 1.475 1.666 2.272 2.666 2.699 3.386 5.72 5.637 10.69 7.967 2.191 1.027 2.878 1.576 1.974 1.576-1.225 0-8.35-4.097-10.333-5.941-1.789-1.664-5.667-6.432-5.535-6.806.06-.17.479.072.932.538zm107.727 1.846c0 .133-.494.985-1.098 1.894-.603.909-1.496 2.256-1.982 2.994-1.113 1.687-1.381 4.199-.63 5.9.582 1.322.633 1.696.231 1.696-.34 0-.954-1.35-1.327-2.918-.414-1.741.205-3.84 1.773-6.011.76-1.05 1.612-2.333 1.895-2.852.473-.866 1.138-1.277 1.138-.703zm-111.97 3.277c1.29 1.42 3.193 3.152 4.228 3.849 2.06 1.387 2.675 2.467.86 1.512-1.338-.705-7.914-6.966-7.914-7.536 0-.784.453-.436 2.826 2.175zm61.447-1.443c0 .141-1.619.339-3.597.44-5.469.279-8.66 1.419-12.015 4.29-.705.603-1.366.968-1.469.81-.299-.46 2.888-2.975 5.037-3.975 1.084-.504 2.979-1.118 4.21-1.364 2.413-.482 7.834-.621 7.834-.201zm-33.096.467c3.569.824 7.896 3.823 9.937 6.886.875 1.314.753 2.128-.136.906-.29-.398-1.457-1.666-2.594-2.817-1.54-1.561-2.676-2.379-4.462-3.215-2.293-1.073-2.536-1.12-5.688-1.12-3.362 0-4.268-.404-1.827-.815 1.753-.295 2.921-.252 4.77.175zm-37.105 3.069c.317.497 1.309 1.543 2.204 2.325.895.783 1.541 1.505 1.435 1.605-.386.366-3.018-1.645-3.736-2.856-.855-1.441-.767-2.423.097-1.074zm96.232.593c1.039.405 2.406 1.13 3.038 1.612 1.212.924 3.227 3.247 3.227 3.72 0 .608-.562.217-1.498-1.04-1.249-1.679-2.802-2.798-5.124-3.692-1.011-.39-1.889-.853-1.952-1.029-.162-.462.19-.397 2.309.429zm-23.124 2.728c3.14.567 6.672 1.775 9.084 3.106 3.575 1.971 7.835 4.686 7.835 4.992 0 .451-.519.197-4.18-2.05-6.071-3.727-9.386-4.963-15.006-5.595-2.58-.29-8.637-.019-10.952.49-1.359.299-1.068-.404.319-.773 2.091-.554 10.182-.661 12.9-.17zm-84.707.233c.483.819 1.539 2.972 1.539 3.138 0 .065-.14.119-.311.119-.252 0-2.247-3.39-2.247-3.818 0-.39.678-.016 1.019.561zm142.763 2.952c1.23.47 1.283 1.005.072.732-.593-.134-1.509-.219-2.035-.19-1.358.075-3.389 1.533-4.292 3.081-.653 1.12-.769 1.722-.754 3.925.009 1.432.249 3.44.532 4.464.569 2.063.653 3.137.244 3.137-.506 0-1.489-5.266-1.471-7.876.02-2.944.659-4.488 2.446-5.916 1.866-1.49 3.683-1.959 5.258-1.357zm-106.529 5.468c1.582.126 5.18.384 7.994.574 8.475.571 14.497 1.217 18.559 1.99 6.698 1.276 17.16 4.722 23.577 7.768 3.019 1.432 14.539 7.71 18.139 9.884 5.096 3.078 11.058 8.134 15.98 13.55 3.252 3.579 14.078 16.75 14.078 17.127 0 .696-.645.07-3.357-3.258-13.173-16.165-18.205-21.204-26.221-26.26-3.438-2.169-15.125-8.626-18.615-10.286-3.46-1.644-10.554-4.31-15.371-5.774-7.172-2.18-11.814-2.922-23.867-3.813-15.572-1.152-17.831-1.24-23.123-.904-11.732.743-20.099 2.643-30.14 6.843-4.802 2.008-5.119 2.112-5.119 1.677 0-.32 3.97-2.061 9.151-4.014 11.028-4.158 25.704-6.112 38.335-5.104zm53.112.297c.897.12 2.192.391 2.878.602 2.429.748 7.371 3.29 10.04 5.164 5.154 3.622 7.624 4.386 14.941 4.625 2.677.087 5.018.247 5.202.355.854.5-.323.593-5.206.412-7.427-.276-10.177-1.141-15.332-4.821-2.825-2.017-7.748-4.488-10.459-5.251-1.996-.561-5.223-.637-6.678-.157-1.398.462-2.028.174-.853-.39 1.244-.598 3.421-.812 5.467-.539zm1.115 6.37c2.596.583 7.404 2.886 11.447 5.484 5.737 3.685 6.819 4.125 11.1 4.513 1.918.173 4.363.432 5.433.575 2.112.282 5.248 1.422 5.248 1.907 0 .321-.122.293-2.957-.668-1.151-.391-3.364-.74-5.916-.935-6.083-.464-7.055-.79-12.071-4.052-6.628-4.309-11.015-6.233-14.212-6.233-1.851 0-2.508-.333-1.431-.725.657-.239 1.924-.188 3.359.134zm57.721 1.047c1.08 1.562.731 6.682-.481 7.06-.306.095-.388-.015-.256-.342.108-.265.377-1.315.599-2.332.356-1.633.336-2.029-.168-3.374-.653-1.744-.516-2.2.306-1.012zm-98.638.166c5.844.398 11.514 1.755 20.343 4.868 5.017 1.77 9.126 3.668 18.368 8.484 12.57 6.55 16.309 9.097 23.948 16.313 5.807 5.485 8.138 8.002 15.941 17.218 4.585 5.414 5.714 6.981 4.532 6.289-.181-.106-2.886-3.221-6.011-6.923-13.294-15.746-21.072-22.721-32.074-28.764-5.507-3.024-14.485-7.588-18.387-9.346-6.126-2.761-15.557-5.793-21.244-6.829-5.21-.949-27.393-1.372-37.433-.713-8.655.568-16.022 1.849-20.721 3.605-1.95.728-1.982.733-1.982.311 0-.456 1.737-1.083 6.234-2.251 4.427-1.149 8.857-1.812 15.174-2.27 4.851-.351 28.12-.346 33.312.008zm79.795 2.998c3.01.689 7.419 4.541 8.251 7.21.359 1.154-.366.755-1.104-.605-1.497-2.761-5.063-5.496-7.727-5.927-.766-.124-1.364-.358-1.329-.52.083-.391.677-.44 1.909-.158zm-104.373 2.946c1.366.576 3.021 1.115 3.678 1.199 2.087.264 2.633.418 2.633.742 0 .349-2.281.137-4.157-.385-2.141-.597-4.796-1.846-4.796-2.256 0-.227.036-.398.08-.38l2.562 1.08zm-11.526 1.992c3.848 2.928 7.203 4.909 10.569 6.242 3.696 1.462 8.596.959 11.752-1.207 1.649-1.132 2.16-.831.639.376-2.566 2.039-7.533 2.915-11.045 1.947-2.124-.585-5.692-2.22-7.828-3.587-2.296-1.47-8.314-6.045-8.314-6.322 0-.555.699-.134 4.227 2.551zm-10.261 1.76c3.833.86 7.982 3.507 11.179 7.134 3.83 4.345 8.199 7.087 11.289 7.087.81 0 1.473.141 1.473.313 0 1.054-3.582.407-6.394-1.157-2.503-1.391-4.794-3.342-7.211-6.142-3.069-3.553-7.218-5.963-11.476-6.666-1.155-.19-2.099-.468-2.099-.618 0-.33 1.658-.305 3.239.049zm50.961 2.592c4.014.948 6.331 3.119 9.884 9.268 3.667 6.344 6.485 8.942 11.158 10.287 2.484.714 7.407.896 12.294.452 1.726-.157 2.638-.134 2.638.066 0 .506-2.763.778-7.994.788-4.267.007-5.275-.087-7.247-.674-4.758-1.417-7.724-4.124-11.309-10.319-3.722-6.434-5.697-8.286-9.752-9.147-1.994-.424-4.825.251-7.136 1.701-1.863 1.168-2.715 1.12-1.169-.066 2.275-1.747 6.421-2.878 8.633-2.356zm100.247 1.777c0 .773-4.817 5.115-6.59 5.94-1.2.559-2.217.753-4.372.836-2.783.107-4.654-.105-4.256-.481.114-.108 1.677-.204 3.475-.213 4.175-.021 5.431-.583 9.085-4.061 1.641-1.562 2.658-2.336 2.658-2.021zm-33.511 2.257c1.981.6 4.379 1.828 5.036 2.579.645.736-.137.585-1.548-.299-1.922-1.206-4.462-1.997-6.99-2.179-1.275-.092-2.318-.284-2.318-.426 0-.463 3.947-.242 5.82.325zm-131.24 2.767c2.235.417 4.299 1.691 8.617 5.317 2.247 1.887 4.783 3.792 5.636 4.233 3.156 1.632 6.768 2.033 10.979 1.219 3.988-.771 5.303-.882 5.148-.436-.077.222-.561.442-1.074.49-.515.048-2.072.3-3.462.56-2.969.554-6.585.598-8.549.103-2.551-.643-4.938-2.117-9.102-5.621-4.998-4.205-7.018-5.278-9.941-5.278-2.286 0-3.673.452-4.992 1.626-1.034.921-1.182.964-1.182.345 0-.714 2.434-2.199 4.188-2.555 1.78-.362 1.814-.362 3.734-.003zm56.35 2.385c3.146.91 5.846 3.132 9.046 7.442 4.738 6.385 6.75 8.284 19.573 18.482a559.536 559.536 0 017.035 5.69c3.561 2.951 12.04 11.657 16.932 17.386 3.298 3.86 5.331 5.683 6.971 6.248.847.293.697.9-.16.645-1.94-.575-4.139-2.492-7.098-6.189-4.529-5.656-14.353-15.378-20.609-20.394-9.69-7.769-16.609-13.55-18.234-15.235-.93-.963-2.766-3.226-4.081-5.027-3.224-4.418-5.108-6.303-7.519-7.523-1.718-.87-2.322-1.017-4.094-.999-3.486.035-5.788 1.165-10.949 5.372-3.487 2.843-6.224 4.589-11.867 7.569-7.317 3.865-8.275 4.084-14.761 3.371-6.552-.719-9.07-.083-10.191 2.573-.284.672-.517 1.423-.517 1.67 0 .247-.143.448-.319.448-.53 0-.361-1.462.312-2.713 1.374-2.551 4.097-3.345 9.546-2.786 4.678.48 7.429.438 9.227-.14 1.809-.582 9.884-4.787 13.067-6.805 1.241-.786 3.543-2.482 5.117-3.77 1.574-1.287 3.649-2.825 4.612-3.417 2.947-1.81 6.594-2.583 8.961-1.898zm98.523 7.5c.464 1.116 1.199 5.639 1.443 8.879.311 4.118-.839 12.875-1.802 13.739-.303.271-.354.146-.228-.56 1.001-5.624 1.252-7.826 1.26-11.058.01-3.669-.649-9.014-1.316-10.677-.208-.519-.215-.879-.019-.995.17-.099.468.203.662.672zM274 335.129c-1.28 2.251-6.729 4.248-10.691 3.92-2.046-.17-4.555-1.202-6.297-2.59-1.748-1.393-.899-1.447 1.174-.074 2.59 1.714 5.215 2.32 8.053 1.857 2.571-.419 4.955-1.405 6.499-2.689 1.285-1.069 1.711-1.212 1.262-.424zm-17.787 6.607c1.927 1.513 6.138 2.038 9.353 1.167.426-.115.719-.063.719.129 0 .496-2.16.955-4.499.957-2.624.002-4.673-.644-6.262-1.974-1.418-1.186-.79-1.44.689-.279zm100.886 1.539c3.835 2.269 7.587 2.452 15.249.743 7.45-1.661 12.318-1.517 18.271.542 2.514.869 6.865 3.083 7.266 3.697.504.772-.296.563-2.197-.574-5.344-3.198-11.706-4.657-17.387-3.988-1.529.18-4.678.729-6.996 1.22-4.967 1.052-9.018 1.188-11.511.387-2.059-.662-4.614-2.158-4.614-2.701 0-.235.036-.414.08-.397.044.017.871.499 1.839 1.071zm-102.804 3.746c2.001 1.979 4.836 2.616 9.032 2.03 1.061-.148 1.679-.124 1.679.066 0 .91-6.887 1.078-8.633.21-1.179-.585-3.518-2.563-3.518-2.974 0-.475.535-.227 1.44.668zm121.83 5.587c4.825 1.191 9.082 2.912 12.865 5.201 3.711 2.245 9.027 4.413 12.126 4.946 1.484.255 2.509.231 4.607-.108 3.93-.634 5.173-.693 5.333-.252.088.245-.184.378-.77.377-.498-.002-2.364.23-4.147.515-3.009.48-3.409.482-5.596.028-2.899-.604-7.005-2.219-10.368-4.079-4.749-2.626-7.104-3.735-10.154-4.781-4.845-1.661-7.694-2.095-12.448-1.895-3.897.164-5.424-.1-2.88-.498 2.852-.447 8.506-.177 11.432.546zm55.052 3.628c-.563 3.894-.576 6.306-.056 10.476.926 7.428.596 12.252-.963 14.088-.503.592-.511.589-.351-.152.09-.416.387-1.503.661-2.414.641-2.138.635-6.176-.016-10.777-.693-4.887-.33-12.56.593-12.56.202 0 .252.511.132 1.339zm-53.752 4.595c1.806.91 3.378 2.032 6.054 4.321 2.631 2.25 5.716 4.11 8.173 4.925 1.775.588 2.691.682 6.616.672 2.507-.005 4.557.095 4.557.223 0 .37-4.679.686-7.182.485-4.705-.377-8.02-1.918-12.803-5.954-3.828-3.23-6.728-4.85-8.682-4.85-.413 0-.751-.136-.751-.303 0-.595 2.469-.3 4.018.481zm-92.274 5.9c2.199.506 5.005 1.368 6.236 1.916 4.368 1.945 10.617 7.332 12.33 10.629.868 1.67 1.062 2.514 1.472 6.419.805 7.657.083 13.499-2.784 22.522-.873 2.749-2.005 6.843-2.514 9.096-1.212 5.362-1.572 6.588-2.007 6.843-.45.264-.336-.381 1.157-6.547.625-2.583 1.659-6.332 2.297-8.332 1.763-5.522 1.989-6.385 2.655-10.149.977-5.516 1.055-7.371.531-12.716-.431-4.394-.603-5.21-1.44-6.821-1.515-2.915-7.725-8.329-11.774-10.267-1.99-.952-8.648-2.565-11.628-2.817-1.447-.122-2.889-.014-4.582.342-2.762.583-3.48.433-1.589-.33.799-.322 2.397-.54 4.446-.605 2.709-.086 3.808.038 7.194.817zm-.799 6.509c2.369.567 5.585 2.093 8.41 3.99 2.492 1.675 6.355 5.133 6.053 5.419-.114.108-1.184-.653-2.379-1.692-2.521-2.192-7.517-5.381-9.899-6.318-3.408-1.343-8.5-1.425-12.772-.207-.844.241-1.591.384-1.661.318-.675-.64 3.531-1.659 7.611-1.845 1.781-.081 3.38.034 4.637.335zm105.474 2.381c.278.402 1.332 1.114 2.345 1.583 1.541.714 2.334.87 4.888.959 1.883.065 3.875-.063 5.211-.335 1.19-.242 2.235-.33 2.324-.194.233.358-.105.489-2.328.903-1.1.205-1.994.525-1.988.711.024.762 1.862 2.809 3.112 3.463 2.169 1.136 5.821 1.713 8.129 1.283 2.076-.387 2.652-.275 1.523.297-1.904.966-6.958.505-9.864-.9-1.391-.673-2.805-2.132-3.427-3.539l-.42-.948-2.969-.133c-2.408-.108-3.282-.284-4.617-.936-1.522-.741-2.99-2.058-2.99-2.681 0-.505.571-.255 1.071.467zm-108.777 2.307c3.882.621 7.17 1.931 11.273 4.492 3.216 2.007 6.539 5.362 5.889 5.946-.06.053-1.019-.115-2.131-.374-1.68-.391-2.839-.424-6.875-.192-2.669.153-5.681.176-6.694.051-2.077-.256-4.474-1.303-6.12-2.672-1.147-.954-2.751-3.631-2.751-4.59 0-.987.48-.573 1.032.892.802 2.123 2.219 3.549 4.651 4.682l2.143.999h15.49l-1.345-1.329c-1.753-1.729-6.469-4.639-9.384-5.788-1.266-.5-3.42-1.088-4.786-1.306-1.366-.219-2.541-.56-2.611-.759-.14-.397.031-.401 2.219-.052zm61.5 2.904c.528.07 2.83.339 5.117.598 5.138.582 8.072 1.129 11.991 2.236 1.671.472 3.433.943 3.917 1.046.484.104.879.338.879.52 0 .431-1.436.171-5.311-.958-5.61-1.637-14.683-2.855-19.765-2.655-2.771.109-3.805.316-7.371 1.472-6.051 1.961-9.011 3.441-10.41 5.205-2.201 2.777-3.719 6.218-5.392 12.221-.879 3.152-1.757 6.821-1.952 8.154-.416 2.843-.544 3.274-.907 3.061-.457-.267.846-7.003 2.373-12.265 2.207-7.606 4.757-11.985 8.078-13.871 1.741-.989 8.488-3.453 11.503-4.201 1.867-.463 5.738-.764 7.25-.563zm52.111 8.48c2.624 2.342 5.183 3.756 7.854 4.339 2.669.583 4.232.459 14.813-1.176 1.156-.179 2.286-.589 2.958-1.075.801-.579 1.087-.667 1.087-.336 0 .717-1.755 1.706-3.588 2.022-12.014 2.071-15.911 1.946-20.224-.647-1.643-.987-5.927-4.728-5.927-5.176 0-.532.56-.153 3.027 2.049zm-51.372-.765c6.244.768 13.328 3.808 16.828 7.222 1.84 1.795 1.138 1.878-.907.107-3.443-2.981-9.165-5.512-14.559-6.439-2.733-.469-7.848-.479-9.872-.018-1.525.347-2.372.284-1.921-.143.092-.087 1.159-.358 2.371-.601 2.386-.479 4.885-.518 8.06-.128zm-.986 4.071c3.187.656 7.755 2.735 12.482 5.681 2.416 1.506 5.041 3.02 5.832 3.365 1.68.733 1.985.665-4.901 1.088-2.784.171-5.869.534-6.856.806-3.398.936-7.822-.069-13.934-3.164-1.61-.816-3.621-1.729-4.468-2.029-1.494-.53-3.674-2.123-3.339-2.441.092-.086.816.259 1.609.766.794.508 1.561.924 1.705.924.143 0 2.434 1.022 5.091 2.271 2.937 1.381 5.9 2.533 7.559 2.939l2.728.668 3.067-.667c1.686-.367 4.046-.675 5.244-.685 1.198-.009 2.754-.116 3.457-.237l1.279-.22-4.358-2.743c-6.833-4.301-12.122-6.197-17.167-6.156-1.85.015-3.326.296-7.094 1.352-.749.21-.766.191-.275-.301 1.451-1.454 8.033-2.103 12.339-1.217zm57.405 14.562c1.164 1.11-1.798 9.309-4.105 11.363-1.22 1.085-1.146.567.186-1.311 1.568-2.209 3.189-6.181 3.465-8.489.118-.985.323-1.688.454-1.563zm-109.618 12.928c-.123.375-.787 1.587-1.477 2.695-.69 1.107-1.401 2.512-1.578 3.122-.666 2.286 1.573 4.831 7.108 8.079 4.369 2.563 5.204 2.986 5.909 2.99.369.002 2.346-.814 4.394-1.814l3.724-1.818 3.44-.004c2.09-.003 3.747-.152 4.222-.38 1.801-.863 2.809-4.388 1.791-6.255-.613-1.123-.417-1.597.358-.863.678.642.908 3.083.445 4.714-.203.713-.779 1.732-1.28 2.263l-.91.965-4.119.173-4.119.172-3.446 1.729c-4.422 2.217-4.946 2.227-8.349.169-7.151-4.325-8.696-5.56-9.643-7.705-.679-1.539-.556-2.317.72-4.574a371.874 371.874 0 001.792-3.204c.682-1.241 1.375-1.55 1.018-.454zm101.516 2.77c.286.326.253.533-.143.909-.638.604-.921.61-1.428.032-.317-.363-.317-.546 0-.909.498-.568 1.091-.58 1.571-.032zm-106.596 16.105c.536.251 2.479 1.617 4.316 3.036 6.509 5.026 9.63 5.887 22.047 6.076 4.485.069 8.117.224 8.072.346-.045.121-3.714.214-8.154.206-12.961-.023-15.73-.815-23.08-6.605-1.395-1.099-3.014-2.213-3.597-2.475-.583-.263-1.06-.607-1.06-.766 0-.393.309-.355 1.456.182zm9.44 13.646c1.755 1.78 3.321 1.999 7.49 1.049 2.986-.68 3.98-.323 1.231.442-2.177.606-5.449.917-6.647.632-.866-.205-3.377-2.171-3.377-2.642 0-.485.516-.28 1.303.519zm31.751 68.06c.384 1.361.202 8.971-.267 11.08-1.233 5.556-3.78 10.398-10.706 20.351-2.266 3.256-4.069 6.529-5.139 9.326-.722 1.889-1.274 2.65-1.274 1.757 0-.675 1.348-3.963 2.558-6.239.574-1.081 2.71-4.419 4.746-7.419 8.062-11.875 9.917-16.811 9.569-25.455-.152-3.774.042-5.063.513-3.401zm122.53 7.47c-.099.151-1.942 1.3-4.096 2.552-11.952 6.952-15.942 11.566-19.168 22.167-2.817 9.257-2.356 13.974 1.757 17.979.914.891 3.606 2.928 5.98 4.526 5.259 3.541 8.556 6.493 10.391 9.305 1.748 2.679 3.181 5.894 2.791 6.264-.175.166-.706-.664-1.334-2.085-2.275-5.154-4.977-8.001-12.161-12.813-5.364-3.594-7.453-5.537-8.758-8.147-.963-1.925-1.001-2.148-.974-5.789.025-3.33.167-4.284 1.177-7.905 3.372-12.083 7.391-16.864 20.569-24.467 2.997-1.729 4.261-2.253 3.826-1.587zm90.315 53.974c4.11.416 9.913 2.538 9.913 3.626 0 .43-.201.371-1.599-.465-.697-.417-2.385-1.131-3.751-1.587-2.461-.821-2.561-.829-10.798-.833-6.974-.003-8.726.087-10.872.558-7.858 1.726-13.057 5.032-19.13 12.162-1.419 1.667-4.468 5.075-6.776 7.574-10.085 10.923-12.451 14.377-15.342 22.392-1.791 4.967-2.717 9.243-2.938 13.564-.26 5.08.139 7.269 2.63 14.429 3.255 9.36 6.07 14.363 10.63 18.889 2.888 2.868 2.522 3.459-.407.656-2.53-2.42-5.399-6.392-7.172-9.928-1.707-3.404-5.311-13.467-5.93-16.559-1.049-5.241-.495-11.562 1.631-18.584 2.837-9.373 6.012-14.238 16.915-25.919 1.788-1.916 4.218-4.643 5.399-6.059 6.269-7.517 12.3-11.534 19.774-13.172 4.368-.957 12.402-1.292 17.823-.744zm-87.374 18.415c2.957 2.855 5.04 7.133 6.954 14.288 2.288 8.552 2.332 15.717.139 22.869-1.147 3.741-4.864 13.482-5.145 13.482-.458 0-.336-.418 1.758-5.975 3.561-9.458 4.589-14.323 4.272-20.231-.315-5.864-2.825-15.198-5.296-19.69-.64-1.166-2.064-3.023-3.163-4.127-1.1-1.104-1.999-2.093-1.999-2.198 0-.541.828-.012 2.48 1.582zm-159.804 40.858c0 .147-.132.397-.291.556-.768.759-3.611 6.698-4.327 9.04-1.103 3.606-1.259 6.176-.855 14.121.492 9.662 2.472 25.986 3.724 30.683.825 3.098 3.683 8.294 5.744 10.444 1.799 1.877 7.195 6.13 11.513 9.075 5.045 3.441 15.394 8.48 20.945 10.196 9.31 2.88 15.888 3.461 21.809 1.927 3.615-.936 6.791-2.376 9.168-4.157.93-.696 1.787-1.172 1.904-1.057.411.4-2.685 2.608-5.541 3.95-4.424 2.08-7.131 2.661-12.471 2.677-4.034.012-4.904-.088-8.794-1.003-2.374-.558-5.755-1.484-7.514-2.057-3.496-1.139-12.429-5.383-16.96-8.058-4.203-2.481-10.126-6.91-13.47-10.072-2.62-2.477-3.117-3.135-4.709-6.224-2.099-4.074-2.735-6.445-3.85-14.36-1.566-11.112-2.129-17.688-2.196-25.678-.056-6.534.018-7.932.506-9.606 1.128-3.874 4.307-10.237 5.265-10.539.219-.069.4-.005.4.142zm38.373 21.52c.004 5.263 1.619 7.206 6.873 8.267 2.581.521 3.092 1.031.794.79-4.235-.443-7.201-2.356-7.935-5.118-.46-1.73-.499-6.287-.053-6.287.185 0 .32.986.321 2.348zm98.166 85.29c-5.952 3.73-14.854 7.645-22.063 9.705-7.164 2.046-12.903 2.723-28.76 3.395-12.465.529-15.508.842-27.839 2.865-18.156 2.978-19.337 3.128-23.183 2.939-4.088-.202-9.029-1.282-15.493-3.387-6.475-2.109-9.815-3.536-16.382-6.998-3.285-1.732-6.14-3.15-6.343-3.15-.245 0-.311.383-.195 1.136.096.625.269 1.886.385 2.803.334 2.646 1.657 6.58 3.1 9.225 2.426 4.443 9.29 10.15 15.875 13.199 2.981 1.38 7.512 2.785 11.39 3.532 4.185.806 24.066.71 35.091-.171a476.172 476.172 0 0115.581-.929c11.496-.458 20.323-1.559 31.557-3.937 3.133-.663 8.573-1.686 12.09-2.272 8.523-1.422 11.596-2.077 15.659-3.338 9.188-2.852 11.077-4.693 11.699-11.407.541-5.844-.498-12.197-2.757-16.868l-1.07-2.21-2.492 1.882c-1.371 1.035-4.003 2.828-5.85 3.986zm-9.593 27.645c-3.077.565-7.538 1.366-9.912 1.779a339.796 339.796 0 00-9.433 1.824c-10.578 2.218-20.277 3.331-33.096 3.796-4.485.163-10.528.53-13.43.815-7.908.778-30.643.79-34.643.018-3.453-.665-8.052-2.1-10.531-3.284-2.007-.959-1.969-.977-2.276 1.103-.099.666-.71 2.23-1.359 3.476-1.037 1.989-1.887 2.927-6.999 7.725-5.921 5.558-7.747 7.726-9.508 11.292-.756 1.53-1.022 2.551-1.132 4.351-.13 2.137-.055 2.53.825 4.313 1.718 3.477 4.631 5.493 10.114 6.998 5.073 1.393 12.02 2.554 17.297 2.891 5.645.36 7.515.602 12.95 1.672 6.783 1.335 12.069 1.974 25.102 3.034 16.943 1.378 36.145.597 49.227-2.003 7.97-1.584 23.021-6.089 28.257-8.459 11.229-5.082 18.232-12.49 16.701-17.669-.878-2.973-3.275-4.642-8.353-5.816-5.794-1.34-7.181-1.875-9.051-3.494-2.843-2.463-4.02-6.025-4.029-12.206-.005-3.296-.052-3.576-.565-3.388-.308.113-3.078.667-6.156 1.232zm23.789 18.111c1.818 1.083 3.323 2.343 4.183 3.502.859 1.158.967 1.547.967 3.48 0 1.868-.156 2.478-1.098 4.292-2.204 4.245-8.553 9.166-16.381 12.696-3.826 1.726-8.764 3.338-18.494 6.04-7.187 1.995-10.529 2.664-18.25 3.655-8.395 1.077-13.366 1.383-22.526 1.383-9.095.001-14.801-.3-26.215-1.385-8.834-.839-12.23-1.3-17.539-2.379-4.748-.966-7.404-1.304-13.305-1.695-7.285-.483-17.358-2.586-21.216-4.429-3.281-1.568-5.436-3.74-6.489-6.543-.542-1.443-.625-4.711-.159-6.214.168-.541.208-.984.088-.983-.59.004-4.979 2.368-7.181 3.868-2.927 1.993-7.566 6.457-9.298 8.948-3.19 4.586-4.764 9.302-4.773 14.297-.007 3.822.758 6.491 2.811 9.809 1.413 2.285 6.093 6.981 9.211 9.244 5.798 4.207 8.79 5.469 22.73 9.588 15.724 4.646 19.066 5.239 37.441 6.647 8.922.684 15.529.759 26.862.305 9.307-.373 12.081-.633 20.947-1.969 3.781-.569 8.746-1.246 11.032-1.504 6.922-.782 9.296-1.301 16.628-3.634 7.452-2.372 9.946-2.86 17.907-3.504 8.063-.654 12.689-1.962 21.01-5.944 12.185-5.83 16.115-9.918 19.18-19.95.639-2.09.739-3.083.73-7.268-.009-4.245-.118-5.254-.878-8.12-1.778-6.712-4.538-11.275-9.586-15.846-4.996-4.526-10.461-6.709-16.866-6.738-1.732-.008-1.978.05-1.473.351z" fill="#000" fill-opacity=".5"/></svg>