<svg width="27" height="27" fill="none" xmlns="http://www.w3.org/2000/svg"><path d="M26.011 12.303h-2.033V10.27a.461.461 0 00-.461-.461h-1.472a.461.461 0 00-.461.461v2.033h-2.033a.461.461 0 00-.461.461v1.472a.46.46 0 00.461.461h2.033v2.033c0 .255.207.462.461.462h1.472a.461.461 0 00.461-.462v-2.033h2.033a.461.461 0 00.462-.461v-1.472a.461.461 0 00-.462-.461zm-9.061.497a.824.824 0 00-.792-.695H9.785c-.385 0-.7.315-.7.7v1.508c0 .385.315.7.7.7h3.147c.362 0 .608.248.488.562a5.132 5.132 0 01-1.827 2.166 5.077 5.077 0 01-2.839.865 5.103 5.103 0 01-4.765-3.281 5.085 5.085 0 01-.341-1.825c0-.65.126-1.27.348-1.843a5.104 5.104 0 014.758-3.263c1.06 0 2.042.326 2.857.88l.024.015c.326.205.755.198 1.018-.083l1.244-1.328a.56.56 0 00-.114-.885l-.016-.016a8.19 8.19 0 00-5.013-1.704 8.224 8.224 0 00-7.268 4.373A8.189 8.189 0 00.527 13.5 8.224 8.224 0 0014.1 19.75a8.206 8.206 0 002.88-6.25c0-.476-.03-.7-.03-.7z" fill="#A78C73"/><path d="M23.517 17.719h-1.472a.99.99 0 01-.988-.989v-1.505H19.55a.99.99 0 01-.989-.99v-1.47a.99.99 0 01.99-.99h1.505V10.27a.99.99 0 01.988-.989h1.472a.99.99 0 01.989.989v1.505h1.505a.99.99 0 01.989.99v1.47a.99.99 0 01-.989.99h-1.505v1.505a.99.99 0 01-.99.989zm-1.406-1.055h1.34v-1.967c0-.291.236-.527.527-.527h1.967v-1.34h-1.967a.527.527 0 01-.527-.527v-1.967h-1.34v1.967a.527.527 0 01-.527.527h-1.967v1.34h1.967c.291 0 .527.236.527.527v1.967zm-13.357 2.47a5.632 5.632 0 01-5.257-3.62A5.61 5.61 0 013.12 13.5c0-.693.13-1.377.385-2.034a5.633 5.633 0 015.249-3.6 5.58 5.58 0 013.15.97l.015.01c.109.066.266.088.349 0l1.244-1.328c.023-.024.026-.04.025-.044 0-.003-.007-.018-.036-.036a7.623 7.623 0 00-4.747-1.637A7.69 7.69 0 001.95 9.894a7.713 7.713 0 00.331 7.777.527.527 0 11-.885.572A8.77 8.77 0 010 13.5c0-1.427.353-2.845 1.02-4.1a8.742 8.742 0 017.734-4.654 8.67 8.67 0 015.353 1.828c.264.184.437.46.477.766a1.11 1.11 0 01-.302.898l-1.244 1.328c-.419.448-1.127.52-1.684.17l-.01-.006-.024-.016-.006-.004a4.538 4.538 0 00-2.56-.789 4.549 4.549 0 00-4.266 2.927 4.555 4.555 0 00-.313 1.652c0 .554.103 1.105.307 1.636a4.604 4.604 0 004.272 2.943 4.598 4.598 0 004.1-2.539h-3.07c-.676 0-1.227-.55-1.227-1.227v-1.508a1.23 1.23 0 011.228-1.227h1.226a.527.527 0 110 1.055H9.785a.175.175 0 00-.173.173v1.507c0 .093.08.173.173.173h3.147c.372 0 .705.16.89.431a.903.903 0 01.08.873 5.647 5.647 0 01-2.016 2.389 5.604 5.604 0 01-3.132.955z" fill="#000"/><path d="M12.894 12.633a.531.531 0 01-.373-.9.531.531 0 01.745 0 .531.531 0 010 .745.532.532 0 01-.372.155zm-4.14 9.621a8.658 8.658 0 01-3.95-.94.527.527 0 11.477-.941 7.699 7.699 0 008.477-1.024 7.693 7.693 0 002.695-5.85c0-.424-.025-.63-.025-.632-.016-.117-.15-.234-.27-.234h-1.05a.527.527 0 110-1.055h1.05c.652 0 1.23.506 1.316 1.152.003.026.034.273.034.77a8.747 8.747 0 01-3.064 6.65 8.754 8.754 0 01-5.69 2.104zm-5.546-2.151a.526.526 0 01-.356-.139 9.088 9.088 0 01-.07-.064.527.527 0 11.72-.771c.02.02.041.038.062.057a.527.527 0 01-.356.917z" fill="#000"/></svg>