<svg width="27" height="27" fill="none" xmlns="http://www.w3.org/2000/svg"><path d="M19.09 26.473H7.91A7.383 7.383 0 01.527 19.09V7.91A7.383 7.383 0 017.91.527h11.18a7.383 7.383 0 017.383 7.383v11.18a7.383 7.383 0 01-7.383 7.383z" fill="#A78C73"/><path d="M19.09 24.152H7.91a5.062 5.062 0 01-5.062-5.062V7.91A5.063 5.063 0 017.91 2.848h11.18a5.062 5.062 0 015.062 5.062v11.18a5.062 5.062 0 01-5.062 5.062z" fill="#fff"/><path d="M13.5 20.25a6.75 6.75 0 100-13.5 6.75 6.75 0 000 13.5z" fill="#D3C0AE"/><path d="M13.5 17.719a4.219 4.219 0 100-8.438 4.219 4.219 0 000 8.438z" fill="#fff"/><path d="M20.421 8.055a1.477 1.477 0 100-2.953 1.477 1.477 0 000 2.953z" fill="#D3C0AE"/><path d="M19.09 27H7.91C3.55 27 0 23.451 0 19.09V7.91C0 3.55 3.549 0 7.91 0h11.18C23.45 0 27 3.549 27 7.91v11.18c0 4.36-3.549 7.91-7.91 7.91zM7.91 1.055A6.863 6.863 0 001.055 7.91v11.18a6.863 6.863 0 006.855 6.855h11.18a6.863 6.863 0 006.855-6.855V7.91a6.863 6.863 0 00-6.855-6.855H7.91z" fill="#000"/><path d="M19.09 24.68h-3.182a.527.527 0 010-1.055h3.182a4.54 4.54 0 004.535-4.535V7.91a4.54 4.54 0 00-4.535-4.535H7.91A4.54 4.54 0 003.375 7.91v11.18a4.54 4.54 0 004.535 4.535h3.217a.527.527 0 010 1.055H7.91a5.596 5.596 0 01-5.59-5.59V7.91a5.596 5.596 0 015.59-5.59h11.18a5.596 5.596 0 015.59 5.59v11.18a5.596 5.596 0 01-5.59 5.59z" fill="#000"/><path d="M13.5 24.68a.531.531 0 01-.527-.528.531.531 0 01.527-.527.531.531 0 01.527.527.531.531 0 01-.527.528zM8.866 9.12a.526.526 0 01-.362-.911l.023-.022a.527.527 0 01.721.77l-.02.019a.526.526 0 01-.362.144z" fill="#000"/><path d="M13.5 20.777c-4.013 0-7.277-3.264-7.277-7.277 0-1.259.326-2.5.945-3.589a.527.527 0 01.917.521A6.223 6.223 0 1019.723 13.5 6.23 6.23 0 0013.5 7.277a6.153 6.153 0 00-2.85.69.527.527 0 01-.484-.937 7.298 7.298 0 013.334-.807c4.013 0 7.277 3.264 7.277 7.277s-3.264 7.277-7.277 7.277z" fill="#000"/><path d="M13.5 18.246A4.751 4.751 0 018.754 13.5 4.751 4.751 0 0113.5 8.754a4.751 4.751 0 014.746 4.746 4.751 4.751 0 01-4.746 4.746zm0-8.437A3.696 3.696 0 009.809 13.5a3.696 3.696 0 003.691 3.691 3.696 3.696 0 003.691-3.691A3.696 3.696 0 0013.5 9.809zm6.921-1.226a2.006 2.006 0 01-2.003-2.004c0-1.105.898-2.004 2.003-2.004s2.004.899 2.004 2.004a2.006 2.006 0 01-2.004 2.004zm0-2.954a.95.95 0 000 1.899.95.95 0 000-1.899z" fill="#000"/></svg>