<svg width="27" height="27" fill="none" xmlns="http://www.w3.org/2000/svg"><g clip-path="url(#clip0)"><path d="M13.5.527C6.335.527.527 6.335.527 13.5c0 5.324 3.208 9.898 7.795 11.897.012-1.249.16-2.493.439-3.711l1.346-5.666c.072-.303.082-.617.029-.924l-.18-1.036c-.02-.12-.03-.24-.03-.362v-.27c0-.961.282-1.901.81-2.703a1.86 1.86 0 011.548-.834h.036c.83 0 1.552.565 1.755 1.378l.015.058a3.113 3.113 0 01-.005 1.53l-.98 3.812c-.292 1.14.552 2.273 1.73 2.287h.028c2.426 0 4.291-2.558 4.291-6.252 0-3.268-2.349-5.554-5.702-5.554-3.885 0-6.165 2.914-6.165 5.925 0 .991.323 2.043.764 2.758a.957.957 0 01.091.818l-.298.855a.67.67 0 01-1.07.286c-1.239-1.08-1.983-3.096-1.983-4.768 0-4.307 3.13-8.262 9.02-8.262 4.736 0 8.417 3.375 8.417 7.885 0 4.705-2.967 8.492-7.085 8.492-1.088 0-2.265-.61-2.874-1.214l-.38 1.477a19.617 19.617 0 01-1.703 4.373l-.126.236c1.096.3 2.249.462 3.44.462 7.165 0 12.973-5.808 12.973-12.973C26.473 6.335 20.665.527 13.5.527z" fill="#A78C73"/><path d="M8.322 25.924a.527.527 0 01-.21-.043A13.503 13.503 0 010 13.5c0-3.606 1.404-6.996 3.954-9.546A13.412 13.412 0 0113.5 0c3.606 0 6.996 1.404 9.546 3.954A13.412 13.412 0 0127 13.5a13.454 13.454 0 01-4.137 9.725.527.527 0 11-.731-.76 12.343 12.343 0 003.813-8.965c0-6.862-5.583-12.445-12.445-12.445S1.055 6.638 1.055 13.5c0 4.69 2.631 8.956 6.767 11.077.056-1.014.198-2.022.425-3.01l1.347-5.669c.056-.235.063-.474.022-.712l-.179-1.036a2.667 2.667 0 01-.038-.452v-.27c0-1.068.31-2.103.897-2.994a2.375 2.375 0 011.988-1.07h.036c1.073 0 2.005.73 2.267 1.777l.015.058a3.652 3.652 0 01-.006 1.79l-.98 3.811c-.1.393-.017.804.23 1.127.242.314.604.497.995.501h.022c1.009 0 1.94-.538 2.623-1.515.736-1.053 1.141-2.547 1.141-4.209 0-2.96-2.128-5.027-5.175-5.027-3.662 0-5.637 2.781-5.637 5.398 0 .832.268 1.806.685 2.482.236.384.287.846.14 1.268l-.298.855a1.197 1.197 0 01-1.915.51c-1.274-1.112-2.163-3.236-2.163-5.166 0-2.004.654-3.932 1.843-5.43 1.289-1.624 3.15-2.711 5.38-3.144a.527.527 0 11.201 1.035c-3.87.75-6.37 3.71-6.37 7.539 0 1.621.758 3.46 1.803 4.37.045.04.094.039.126.03a.14.14 0 00.1-.091l.298-.856a.43.43 0 00-.043-.367c-.52-.843-.842-2.006-.842-3.035 0-1.653.646-3.278 1.772-4.456 1.247-1.306 2.949-1.996 4.92-1.996 1.76 0 3.35.604 4.477 1.7 1.13 1.101 1.753 2.657 1.753 4.381 0 3.928-2.027 6.78-4.82 6.78h-.033a2.313 2.313 0 01-1.82-.916 2.355 2.355 0 01-.414-2.03l.98-3.812a2.6 2.6 0 00.004-1.27l-.015-.06a1.283 1.283 0 00-1.243-.977h-.037c-.447 0-.86.223-1.107.596a4.37 4.37 0 00-.724 2.413v.27c0 .091.008.183.024.272l.179 1.037c.065.379.053.76-.036 1.135l-1.346 5.666a16.825 16.825 0 00-.424 3.594.527.527 0 01-.528.522zm12.301-1.052a.527.527 0 01-.291-.968l.038-.025a.527.527 0 01.58.88l-.037.026a.525.525 0 01-.29.087z" fill="#000"/><path d="M13.5 27a13.58 13.58 0 01-3.58-.48.527.527 0 01-.325-.758l.126-.236a19.119 19.119 0 001.658-4.255l.38-1.477a.527.527 0 01.88-.243c.52.514 1.575 1.06 2.504 1.06 3.739 0 6.558-3.423 6.558-7.964 0-3.385-2.297-6.236-5.714-7.093a.527.527 0 01.257-1.023c1.887.473 3.504 1.48 4.676 2.911 1.2 1.467 1.835 3.267 1.835 5.205 0 2.423-.752 4.677-2.117 6.345-1.412 1.724-3.363 2.674-5.495 2.674-.928 0-1.865-.371-2.565-.826l-.178.694a20.17 20.17 0 01-1.559 4.126c.871.19 1.762.285 2.659.285 1.532 0 3.028-.275 4.446-.817a.527.527 0 01.377.985A13.446 13.446 0 0113.5 27zm.396-21.71h-.085a.527.527 0 010-1.055h.09a.527.527 0 01-.005 1.055z" fill="#000"/></g><defs><clipPath id="clip0"><path fill="#fff" d="M0 0h27v27H0z"/></clipPath></defs></svg>