<svg width="27" height="27" fill="none" xmlns="http://www.w3.org/2000/svg"><path d="M23.52 26.473H3.48A2.953 2.953 0 01.527 23.52V3.48A2.953 2.953 0 013.48.527h20.04a2.953 2.953 0 012.953 2.953v20.04a2.953 2.953 0 01-2.953 2.953z" fill="#A78C73"/><path d="M4.978 8.596h2.288c.356 0 .671.23.779.57.23.724.685 2.015 1.324 3.139a12.41 12.41 0 001.612 2.185.378.378 0 00.656-.256v-3.302a2.31 2.31 0 00-.435-1.35l-.224-.313a.425.425 0 01.346-.673h3.2c.289 0 .523.234.523.523v4.233c0 .275.284.458.534.344l.218-.1a.316.316 0 00.1-.071 14.049 14.049 0 002.636-3.985l.24-.546a.665.665 0 01.61-.398l2.259.003a.56.56 0 01.494.826l-1.044 1.953a7.067 7.067 0 01-.45.731l-1.22 1.741a.763.763 0 00.098.99l.894.853a11.022 11.022 0 011.795 2.22l.268.438a.612.612 0 01-.523.932h-1.95c-.395 0-.773-.16-1.048-.442l-1.95-2.006a2.83 2.83 0 00-1.422-.79.444.444 0 00-.54.433v1.97a.835.835 0 01-.834.835 7.45 7.45 0 01-4.526-1.532 13.401 13.401 0 01-4.758-7.011l-.426-1.515a.495.495 0 01.476-.63z" fill="#fff"/><path d="M21.956 19.81h-1.95a2 2 0 01-1.426-.601l-1.95-2.006a2.295 2.295 0 00-1.056-.62v1.865c0 .751-.611 1.363-1.362 1.363a8.02 8.02 0 01-4.847-1.641 13.96 13.96 0 01-1.483-1.312.527.527 0 01.753-.739c.426.435.888.843 1.371 1.213a6.96 6.96 0 004.206 1.424c.17 0 .308-.138.308-.308v-1.97c0-.296.132-.572.362-.757a.967.967 0 01.817-.192 3.347 3.347 0 011.687.939l1.95 2.005a.94.94 0 00.67.283h1.95c.013 0 .05 0 .075-.044.024-.043.004-.075-.002-.086l-.268-.437a10.474 10.474 0 00-1.709-2.115l-.894-.852a1.282 1.282 0 01-.167-1.675l1.222-1.74a6.55 6.55 0 00.416-.678l1.044-1.953c.004-.006.01-.017 0-.033-.01-.017-.022-.017-.03-.017l-2.26-.002a.138.138 0 00-.126.082l-.24.545a14.538 14.538 0 01-2.735 4.135.84.84 0 01-.265.19l-.217.1a.9.9 0 01-.865-.063.9.9 0 01-.415-.76v-4.23h-2.998l.109.15c.348.487.533 1.06.533 1.659v3.302a.9.9 0 01-.578.844.899.899 0 01-.994-.232 12.989 12.989 0 01-1.681-2.28c-.67-1.18-1.146-2.537-1.369-3.24a.288.288 0 00-.276-.203H5.021l.415 1.474c.242.858.574 1.694.988 2.484a.527.527 0 01-.934.49 13.953 13.953 0 01-1.07-2.688l-.426-1.515a1.014 1.014 0 01.169-.895c.195-.257.492-.405.815-.405h2.288a1.34 1.34 0 011.282.938c.21.664.657 1.942 1.28 3.038.406.716.887 1.338 1.281 1.796v-2.908a1.78 1.78 0 00-.335-1.043l-.224-.312a.954.954 0 01.774-1.509h3.2c.579 0 1.05.472 1.05 1.05V13.1a13.482 13.482 0 002.478-3.771l.24-.546c.19-.433.618-.713 1.092-.713h.001l2.26.002c.385 0 .734.199.932.53.199.331.208.732.026 1.072l-1.044 1.954c-.144.27-.306.534-.483.785l-1.221 1.741a.234.234 0 00.03.306l.895.851a11.492 11.492 0 011.88 2.329l.268.437a1.14 1.14 0 01-.972 1.735z" fill="#000"/><path d="M6.958 15.471a.527.527 0 01-.43-.22l.43-.307-.432.304-.003-.005a.527.527 0 11.857-.614l.006.008a.527.527 0 01-.428.834zm3.845 8.998H6.505a.527.527 0 010-1.055h4.298a.527.527 0 010 1.055zm2.4 0h-.006a.527.527 0 010-1.055h.006a.527.527 0 010 1.055z" fill="#000"/><path d="M23.52 27H3.48A3.484 3.484 0 010 23.52V3.48A3.484 3.484 0 013.48 0h20.04A3.484 3.484 0 0127 3.48v20.04A3.484 3.484 0 0123.52 27zM3.48 1.055A2.429 2.429 0 001.055 3.48v20.04a2.429 2.429 0 002.425 2.425h20.04a2.429 2.429 0 002.425-2.425V3.48a2.429 2.429 0 00-2.425-2.425H3.48z" fill="#000"/></svg>