<svg width="176" height="74" fill="none" xmlns="http://www.w3.org/2000/svg"><path fill-rule="evenodd" clip-rule="evenodd" d="M175.982 53.657c-.059-.175-.322-.122-.904.18-1.467.764-2.468.944-4.886.879-.989-.027-2.167-.104-2.617-.172a23.648 23.648 0 00-1.718-.179 93.073 93.073 0 01-2.209-.174c-2.071-.19-3.258-.223-8.876-.254-3.848-.021-5.786-.067-7.158-.17-2.086-.156-2.034-.147-5.194-.942-4.101-1.033-5.095-1.182-6.574-.991-.947.122-1.503.39-1.998.963-1.145 1.326-1.339 1.486-2.522 2.078-1.082.542-1.167.604-1.913 1.39-.804.848-1.29 1.183-2.25 1.554-.54.21-1.073.557-1.758 1.148-1.171 1.008-3.252 1.546-4.611 1.19-.663-.173-.696-.153-.913.555-.189.618-.397 1.042-.817 1.662-.492.728-.517.791-.738 1.878a7.674 7.674 0 00-.18 1.985c.018.969.011 1.02-.204 1.359-.258.406-.827.785-1.27.846-.434.059-.819-.23-1.102-.825-.393-.827-.494-1.38-.534-2.927-.043-1.664.049-2.487.401-3.595.284-.89.415-2.328.234-2.556-.23-.288-.385-.148-.78.702-.34.731-.484.932-1.193 1.663-.444.458-.86.919-.925 1.023-.065.105-.195.505-.288.888-.221.91-.403 1.34-.901 2.127-.483.762-.575 1.06-.578 1.865-.003.74-.126 1.663-.292 2.19-.156.495-.537.895-.969 1.016-.456.128-.981-.102-1.291-.565-.222-.332-.225-.348-.109-.743.229-.785.246-1.74.048-2.772l-.18-.943.262-.84c.229-.73.27-1.004.318-2.117.043-.985.092-1.357.21-1.62.172-.38 3.521-3.885 4.54-4.75.981-.833 2.218-1.368 3.574-1.545.725-.095.805-.123.828-.29.098-.703-2.823.043-4.29 1.094-.215.155-.767.628-1.227 1.053-3.41 3.15-4.876 3.928-6.785 3.598-.402-.07-.902-.15-1.113-.18-.411-.058-1.189-.528-1.574-.952-.339-.372-.644-1.052-.653-1.453-.012-.513.287-.805 1.153-1.132 1.148-.433 1.688-.784 2.859-1.86.87-.802 1.008-.883 2.147-1.268.973-.328 2.856-1.313 3.499-1.83.476-.383.775-.745 1.407-1.707.289-.44.583-.764.905-1 .583-.425.961-.863 1.169-1.352.189-.448.169-.747-.052-.747-.113 0-.238.165-.438.577-.23.473-.374.647-.794.96-.282.21-.559.439-.615.509-.146.183-.406.158-.866-.085a4.356 4.356 0 00-.434-.213c-.078-.001.436.373.688.501l.281.142-.375.595c-.206.327-.416.622-.468.657-.222.147-.907-.096-1.605-.57-.494-.335-.676-.39-.458-.139.176.203 1.228.752 1.584.826.144.03.262.08.262.112 0 .078-.472.534-.778.751-.503.359-2.555 1.379-3.116 1.55-.73.223-.718.224-.551-.057.234-.394.692-.858.903-.913.146-.038.192-.1.173-.236-.022-.156-.108-.199-.557-.276-.726-.125-1.183-.413-1.687-1.065-.416-.537-.491-.721-.838-2.05l-.078-.297-.006.298c-.004.262.032.494.196 1.25.039.181.025.184-1.135.194-1.395.012-2.064-.085-3.324-.481-1.007-.317-1.138-.4-1.448-.907-.11-.18-.22-.308-.243-.283-.023.024.074.22.216.436l.258.391-.545.267c-.611.297-1.396.416-2.312.347-.75-.056-1.81.102-2.777.413-.873.28-2.646.473-3.415.371-.984-.13-2.085-.991-2.086-1.63 0-.246.348-.665.765-.919.515-.314 3.24-1.394 4.347-1.723a14.81 14.81 0 001.925-.758c1.114-.548 1.79-.715 2.902-.718.45 0 1.278-.08 1.84-.175 1.207-.206 2.134-.236 4.132-.135 1.655.084 1.647.085 4.622-.598 2.308-.53 3.354-.911 5.112-1.862 1.778-.96 2.103-1.08 3.821-1.396a15.944 15.944 0 002.359-.614c1.369-.492 1.767-.572 3.391-.677 3.093-.2 3.71-.328 5.44-1.122 2.327-1.07 2.38-1.083 4.459-1.179 2.168-.099 2.663-.243 4.536-1.316 2.088-1.197 2.957-1.337 6.912-1.115 3.247.182 3.6.151 5.035-.442 1.256-.519 2.095-.965 2.971-1.578 1.161-.814 2.895-1.592 4.514-2.026.593-.159 1.403-.289 2.373-.38.81-.076 1.724-.198 2.033-.272.65-.154 1.77-.627 2.947-1.242 1.684-.881 2.235-.988 7.827-1.514a20.73 20.73 0 011.517-.09c.625 0 .812-.097.68-.353-.126-.245-.582-.23-4.533.146-1.852.177-3.772.51-4.489.778-.321.12-1.044.459-1.607.752-1.708.89-2.245 1.054-4.089 1.242-.877.09-1.876.221-2.219.292-1.57.323-3.945 1.342-5.249 2.252-.966.674-1.457.938-2.761 1.484-1.34.56-1.789.61-4.25.47-2.469-.141-4.196-.142-4.95-.002-.939.175-1.562.425-3.026 1.213-1.925 1.036-2.159 1.102-4.213 1.191-2.065.09-2.385.169-4.172 1.021-1.864.89-2.616 1.08-4.703 1.194-2.506.136-2.865.2-4.591.807-.685.24-1.514.453-2.299.59-1.58.273-1.983.42-3.664 1.325-.765.412-1.691.869-2.058 1.015-.902.359-2.509.79-4.527 1.215l-1.677.352-1.513-.073c-1.993-.098-2.911-.075-3.804.095-.405.077-1.362.174-2.127.216-.765.042-1.538.12-1.718.172-.18.052-.75.3-1.268.55-.517.249-1.392.592-1.944.761-1.17.359-3.536 1.282-4.257 1.661-.883.465-1.325 1.107-1.208 1.755.127.703 1.332 1.673 2.274 1.83.88.147 2.697-.012 3.744-.327 1.17-.352 1.734-.43 3.027-.422 1.166.007 1.587-.068 2.223-.399l.383-.199.762.25c1.389.454 2.219.59 3.616.59h1.273l.336.464c.345.476.926.928 1.326 1.03.257.067.27.102.11.289-.063.074-.298.45-.522.834-.729 1.256-2.237 2.527-3.609 3.043-1.149.431-1.47.69-1.655 1.335-.181.63.265 1.734.959 2.37.331.304 1.143.782 1.534.904.177.054.17.17-.162 2.603-.243 1.776-.219 2.168.198 3.314.298.82.298.821.281 2.056-.022 1.606.067 2.07.483 2.503.309.322.33.33.799.295.561-.043 1.399-.436 1.756-.824l.231-.252.294.338c.393.454.708.61 1.246.613a1.69 1.69 0 001.333-.622c.426-.527.71-1.76.714-3.101.002-.668.13-1.053.574-1.725.348-.528.68-1.324.847-2.032.194-.822.288-.977.991-1.632.341-.319.773-.82.959-1.117.187-.295.351-.526.365-.512.024.026-.126.613-.474 1.867-.218.78-.315 3.446-.161 4.378.137.822.458 1.777.743 2.208.264.401.797.724 1.196.724.676 0 1.575-.61 1.935-1.31.159-.312.178-.465.163-1.333a8.48 8.48 0 01.152-1.875c.18-.948.346-1.341.921-2.186a5.08 5.08 0 00.538-1.09l.18-.566.3.067c.164.036.692.06 1.173.052 1.507-.026 2.78-.508 3.987-1.512.77-.64.903-.722 1.672-1.024.855-.335 1.258-.623 2.22-1.584.835-.834.959-.925 1.718-1.26 1.011-.447 1.606-.906 2.361-1.818.364-.44.722-.78.952-.902.776-.413 2.576-.465 4.172-.12.427.091 1.79.421 3.027.733 1.237.31 2.581.638 2.986.727 1.4.308 4.043.434 9.775.467 5.621.033 6.658.063 8.794.254.72.064 1.714.142 2.209.174a26.7 26.7 0 011.759.179c1.246.177 4.129.247 5.031.123.836-.115 2.211-.566 2.911-.955.477-.265.571-.37.506-.565zm-19.257-4.542c-.845-.294-.854-.295-2.28-.286-1.218.008-1.664.051-2.986.288-1.424.255-1.647.274-2.662.225-1.871-.091-4.001-.399-7.197-1.038-1.982-.397-4.912-.357-6.543.09-.247.068-.327.105-.177.083.151-.022.85-.101 1.555-.176 1.92-.204 3.038-.086 5.739.605 2.457.629 3.678.835 5.781.976 1.341.09 1.901.028 2.989-.331 1.079-.356 1.471-.414 3.262-.481 1.558-.059 1.604-.055 2.393.17 1.093.31 1.167.237.126-.125zm.133-3.634c-.09.027-.403.106-.695.176a9.3 9.3 0 00-.877.255c-.189.07-1.036.29-1.881.487-1.503.351-1.57.36-3.05.36-.833 0-1.882-.047-2.332-.103-2.432-.306-5.491-.713-6.212-.826-1.199-.189-3.041-.246-4.095-.129-1.67.187-3.416.676-4.712 1.32-.678.339-.662.284.066-.223.672-.468 1.677-1 2.724-1.441.853-.36.891-.454.05-.124-.915.359-2.513 1.21-3.445 1.835-1.159.778-1.558 1.124-1.495 1.296.041.11.253.03 1.203-.448 1.889-.953 2.933-1.314 4.791-1.655.85-.156 4.09-.186 5.113-.047l2.74.38c4.089.57 5.168.595 7.526.18 1.839-.325 4.457-1.028 4.663-1.252.056-.06.03-.074-.082-.04zm-16.94-4.54c-.095.004-.115.024-.049.051.059.025.129.022.156-.006.027-.028-.021-.049-.107-.045zm-2.427-.888c-.824-.634-1.085-.758-1.699-.804-1.602-.12-3.175.86-4.347 2.708-.951 1.5-1.342 1.876-1.946 1.875a1.445 1.445 0 01-.732-.215c-.197-.118-.375-.198-.394-.178-.019.02.207.16.502.312.507.26.556.27.897.17.502-.147.878-.499 1.542-1.445.763-1.088 1.467-1.83 2.075-2.187.539-.316 1.585-.633 2.09-.633.369 0 1.729.439 2.244.724.199.11.361.184.361.165 0-.02-.267-.241-.593-.492zm-5.161 10.301c-.103-.328-.106-.316-.07.32.028.498.002.759-.104 1.05-.079.214-.125.407-.103.429.071.074.316-.674.35-1.07a2.303 2.303 0 00-.073-.729zm-.501-1.028c-.066-.09-.122-.122-.123-.07-.001.054.053.145.12.203.156.135.157.08.003-.133zm-1.771-.16c-.055.036-.253.549-.677 1.756-.204.58-.889 1.552-1.377 1.954-1.03.848-2.065 1.182-3.873 1.248-1.315.048-2.143-.063-3.008-.406-.227-.09-.429-.145-.45-.124-.119.124 1.97.74 3.051.9.313.046.921.085 1.35.087 2.001.005 3.951-1.29 4.581-3.042.179-.5.509-2.44.403-2.373zm-2.225-5.6c-.105.09-.135.24-.126.64l.013.522.049-.512c.027-.281.084-.569.126-.639.066-.11.058-.112-.062-.01zm-.117 10.92c-.563.456-1.385.974-1.808 1.14-.654.255-1.758.235-2.737-.05-.934-.273-.814-.146.148.157.576.18.915.233 1.563.24.817.007.834.003 1.516-.356.38-.2.882-.54 1.116-.753.441-.401.6-.701.202-.378zm-1.486-10.18c-.102-.065-.114.033-.13 1.061-.012.836-.211 1.439-.769 2.331-.38.608-.706.877-1.767 1.457-.901.493-.925.515-.318.294.82-.299 1.417-.682 1.996-1.282.808-.837.948-1.198 1.02-2.64.041-.812.031-1.18-.032-1.22zm-3.899 14.15c-.453-.339-.858-.763-1.821-1.906-.472-.561-1.445-1.365-1.537-1.27-.021.022.104.13.277.242.302.194.749.673 1.896 2.032.484.574 1.394 1.367 1.568 1.367.165 0 .044-.146-.383-.465zm-1.561-.057c-.124-.108-.826-1.032-1.759-2.318-.266-.366-.524-.607-.859-.8l-.478-.277.327.048c.18.026.435.083.566.126.131.043.255.06.277.038.078-.081-.449-.23-1.088-.307-.784-.094-1.224-.087-.668.01.858.15 1.47.711 2.691 2.468.342.492.735.964.874 1.05.274.166.332.148.117-.038zm-1.331-8.77c-.038.583-.092.804-.274 1.127-.359.637-.715.872-2.105 1.389-2.206.821-4.653 2.041-5.399 2.691-.275.24-.197.198.933-.508.843-.527 1.168-.672 2.413-1.079 3.542-1.156 3.954-1.337 4.321-1.906.172-.267.186-.373.173-1.364-.014-1.035-.016-1.048-.062-.35zm-.6 9.45c-.285-.352-.483-.414-1.303-.405-.825.01-.731.138.112.154.599.01.873.12 1.149.459.137.17.223.225.224.146.001-.07-.081-.23-.182-.354zm-1.895 3.68c-.305-.12-.505-.109-.786.043-.321.172-.501.563-.549 1.188-.034.444-.015.545.14.728.148.175.169.183.12.043-.206-.584-.073-1.382.28-1.671.151-.124.309-.166.558-.15.423.027.538-.06.237-.18zm.144 1.846c-.077-.08-.527-.06-.723.032-.118.056-.081.064.135.029.164-.027.375-.005.47.047.161.09.239.018.118-.108zm-1.8-7.734c-.165-.19-.376-.386-.47-.436-.094-.05.031.125.276.388.246.263.458.479.471.479.069 0-.008-.12-.277-.43zm-1.982 1.283c-.043 0-.138.192-.213.425-.074.234-.169.447-.211.474a.186.186 0 00-.075.14c0 .136.238-.095.362-.35.152-.316.226-.689.137-.689zm-1.424 2.049c-.253-.01-1.033.707-1.043.96-.002.056-.032.47-.067.918-.075.975-.218 1.319-.909 2.197-.569.723-.594.87-.29 1.662.111.289.236.68.278.867l.076.34.008-.358c.005-.198-.068-.561-.161-.807-.233-.616-.168-.855.422-1.562.797-.955.915-1.258.969-2.5l.046-1.052.369-.332c.202-.182.338-.332.302-.333zm-2.109-5.895c-.229-.3-.456-.559-.504-.577-.101-.038.183.407.526.825.127.154.23.36.23.457 0 .11-.253.431-.668.849-.368.37-.643.698-.611.731.13.136 1.443-1.377 1.443-1.663 0-.043-.187-.323-.416-.622zm-1.269 6.02c-.096.236-.157.733-.199 1.62-.053 1.108-.097 1.395-.331 2.157-.258.837-.266.901-.169 1.364.298 1.426.31 2.242.044 3.175-.164.573-.686 1.113-1.317 1.359-.655.255-.995.207-1.206-.17-.151-.268-.168-.446-.172-1.748-.005-1.44-.007-1.454-.302-2.344-.164-.492-.32-1.053-.349-1.246-.03-.208.035-1.03.16-2.004.116-.908.233-1.838.259-2.065l.049-.414.543.073c1.157.155 2.092.01 3.101-.48l.512-.249-.243.316a3.414 3.414 0 00-.38.656zm.049-5.626c-.135-.135-.246-.206-.246-.157 0 .087.194.289.389.404.168.1.117.013-.143-.247zm-.785.433c-.153-.184-.278-.299-.276-.256.003.112.468.683.515.632.021-.023-.086-.192-.239-.376zm-.646 7.793c-.089 0-.544 1.06-.55 1.282-.004.133.118.578.271.99.214.575.284.696.303.524.015-.126-.084-.45-.224-.74-.312-.643-.312-.825-.005-1.46.248-.512.277-.596.205-.596zm-.133-6.734c-.106-.276-.382-.582-.661-.733-.452-.245-.821-.158-2.075.494-.682.355-1.181.664-1.181.734 0 .066.354.518.787 1.006.678.762.823.885 1.043.884.141 0 .311-.038.379-.084.093-.062.057-.083-.147-.084-.311-.001-.811-.443-1.428-1.261l-.372-.494.339-.108c.187-.06.736-.302 1.22-.538.922-.452 1.083-.472 1.497-.19.264.181.555.828.483 1.075a2.258 2.258 0 01-.266.492l-.209.298.214-.202c.242-.228.471-.683.463-.919a1.457 1.457 0 00-.086-.37zm-3.123-9.587c-.261-.037-.494-.046-.519-.02-.061.063.651.17.84.124.084-.02-.06-.067-.321-.104zm-2.536-.476c-1.233-.364-1.759-.372-3.166-.047-1.597.37-1.864.46-2.794.95-1.052.554-1.485.683-2.974.886-1.05.142-1.097.156-.572.165.787.012 2.03-.195 2.663-.444l1.223-.481c.755-.297 3.488-.93 4.319-1.002.359-.03.776.013 1.376.145.473.104.874.174.892.156.017-.018-.418-.166-.967-.328zm-15.556 3.352c-.156-.521-.542-1.2-1.396-2.453-.694-1.02-1.244-1.949-2.648-4.47-1.31-2.356-2.31-3.136-5.735-4.48-2.785-1.092-3.807-1.66-5.87-3.264-1.205-.937-1.9-1.376-2.812-1.777-1.228-.54-2.12-.723-5.757-1.184-.945-.12-2.178-.29-2.74-.38a158 158 0 00-3.027-.43c-1.102-.148-3.193-.515-4.645-.818-3.832-.796-5.286-.998-7.994-1.108-3.455-.14-5.401.43-8.68 2.545-2.474 1.595-3.223 1.914-6.063 2.581-1.916.45-2.67.675-3.722 1.112-1 .414-1.258.553-3.201 1.72-3.999 2.4-5.665 3.005-10.606 3.855-1.372.236-3.176.583-4.008.771-2.082.47-6.642 1.707-6.78 1.838-.155.147-.055.377.164.377.099 0 1.085-.248 2.191-.552 3.774-1.035 5.738-1.48 8.474-1.925 4.852-.788 6.954-1.553 10.88-3.961 1.508-.924 2.945-1.648 3.954-1.992.42-.143 1.562-.453 2.536-.688 3.335-.804 3.754-.975 6.15-2.514 1.757-1.13 2.263-1.419 3.124-1.788 2.844-1.22 6.71-1.182 12.94.126 1.343.282 3.024.606 3.733.72.89.143 1.49.29 1.933.474 1.402.582 2.007.783 3.333 1.11.76.186 1.394.326 1.41.31.014-.016-.607-.213-1.382-.44-1.32-.384-2.808-.982-2.613-1.05.047-.017 1 .106 2.118.272 1.117.166 2.675.38 3.462.475 3.09.374 4.29.707 5.734 1.588.687.42 1.085.811 1.547 1.522.364.559.818 1.087.818.952 0-.033-.148-.303-.328-.6-.18-.297-.327-.564-.327-.595 0-.03.267.15.593.4 1.566 1.2 2.613 1.746 5.613 2.925 2.132.837 2.957 1.315 3.815 2.208.55.573 1.04 1.328 1.96 3.023.775 1.426 1.35 2.378 2.087 3.453.594.868.618.911.481.884a.672.672 0 00-.285.04c-.514.181-.124 1.177.636 1.624l.275.162-.218-.247c-.245-.277-.641-1.02-.641-1.2 0-.183.227-.23.432-.09.255.174.65 1.042.696 1.527.032.343.008.429-.174.618-.178.186-.283.219-.684.217-1.126-.005-2.677-1.123-3.313-2.389-.148-.294-.409-.54-1.21-1.141-1.444-1.082-2.741-2.485-2.89-3.125-.043-.179-.013-.243.157-.337.193-.108.429-.422.316-.422-.027 0-.222.125-.432.277-.323.233-.454.276-.833.271-.574-.007-2.57-.644-4.003-1.277-.58-.256-1.222-.49-1.426-.519l-.371-.053.332-.41c.182-.225.317-.454.3-.507-.017-.054-.189.098-.382.336-.413.51-.597.619-1.363.8-.895.214-1.329.243-2.19.148-.852-.094-1.293-.242-1.592-.534-.23-.226-.232-.355-.008-.684.098-.142.139-.244.092-.226-.175.068-.722.643-.814.856-.105.24-.66.742-1.052.95-.325.171-1.643.42-2.042.386-.298-.026-.337-.065-.745-.752-.236-.398-.47-.771-.519-.828-.102-.12-.3-.063-.363.105-.023.063.352.79.833 1.614.48.825.911 1.566.956 1.649.12.22 1.342 1.777 1.839 2.343.617.704 1.82 1.617 2.497 1.894 2.72 1.116 4.289 2.788 4.954 5.284.442 1.656-.094 2.807-1.3 2.795-.59-.006-1.086-.24-1.807-.855a52.692 52.692 0 00-1.315-1.07 58.76 58.76 0 01-2.064-1.75l-1.287-1.142.233-.226c.214-.209.638-.947.544-.947-.022 0-.114.148-.202.33a2.113 2.113 0 01-.417.554l-.256.224-.464-.372c-.78-.624-1.39-.996-2.255-1.374a43.331 43.331 0 01-2.217-1.095c-1.325-.699-2.121-.998-2.99-1.126-.307-.044-.454-.137-.838-.525-.257-.259-.468-.495-.47-.525-.002-.03-.115-.19-.252-.354l-.249-.298.174.384c.095.21.267.571.381.801l.208.418-.625-.05c-.497-.039-.681-.093-.896-.264-.368-.292-.8-.777-1.148-1.289-.16-.234-.29-.384-.29-.332 0 .106.351.628.876 1.302.196.253.346.47.333.484-.076.08-.93-.193-1.495-.476-.978-.49-3.157-2.33-4.069-3.436-.392-.477-.797-1.03-.899-1.228-.101-.198-.235-.381-.298-.406-.063-.025-.23.08-.374.234-.38.408-1.05.746-2.663 1.343-2.168.804-2.684 1.107-3.835 2.257-.78.779-1.438 1.633-2.3 2.986-1.078 1.69-1.984 2.882-2.983 3.922-1.382 1.438-1.807 1.735-6.875 4.815-1.26.766-3.008 1.873-3.885 2.46-2.738 1.832-3.348 2.315-4.909 3.892-1.554 1.571-2.302 2.228-3.395 2.983-1.625 1.124-2.696 1.652-6.014 2.968-2.715 1.077-4.924 1.625-7.505 1.863-1.133.105-1.303.178-1.076.463.09.113.228.126.848.079 1.462-.111 3.814-.549 5.3-.987 1.516-.446 5.169-1.93 6.619-2.687 2.005-1.048 3.2-1.96 5.195-3.968 1.59-1.6 2.36-2.24 4.241-3.524 1.914-1.306 2.85-1.902 5.972-3.8 1.485-.902 3.104-1.92 3.6-2.264 1.96-1.36 3.206-2.758 5.272-5.917 2.115-3.232 2.953-3.96 5.779-5.02 1.51-.566 2.226-.892 2.66-1.212l.216-.158.421.574c.739 1.006 1.348 1.71 1.685 1.943.18.125.49.367.69.537 1.608 1.376 2.183 1.768 2.995 2.04.59.2.926.248 2.526.36 1.761.124 2.45.316 3.934 1.102.681.36 1.696.864 2.255 1.119.558.255 1.273.638 1.588.852.58.395 2.29 1.817 2.83 2.354.328.325.324.215.067 1.575-.37 1.956-.01 2.97 1.054 2.97.651 0 1.171-.424 1.776-1.449.125-.21.237-.397.25-.413.014-.016.194.092.401.24.911.654 1.85.817 2.551.444.424-.225.873-.764.998-1.196.316-1.1-.19-3.036-1.177-4.507-.402-.6-.405-.62-.19-1.366.134-.464.022-1.062-.347-1.86-.309-.667-.407-1.388-.213-1.556.104-.09.204.027.667.784.3.49.847 1.258 1.216 1.708.576.703.788 1.062 1.507 2.544.808 1.667.845 1.768 1.084 2.96.275 1.38.523 1.994 1.003 2.495.558.58 1.68.985 2.093.754.22-.123.325-.537.257-1.007-.03-.2-.038-.365-.02-.365.019 0 .158.099.31.22.702.558 1.812.716 2.496.356.631-.333.643-.411.34-2.166a33.906 33.906 0 01-.337-2.502c-.086-1.123-.099-1.167-.704-2.43-.449-.937-.79-2.074-.902-2.999l-.058-.484.4.3c.22.164.578.43.794.588.226.165.58.564.827.931.624.928 1.376 1.625 2.226 2.064.635.328.784.37 1.373.394.554.021.705-.003.932-.151.471-.308.62-.99.387-1.769zm-5.492 7.785c-.454.198-1.073.15-1.629-.124-.953-.472-1.593-1.52-1.982-3.25a19.426 19.426 0 00-.355-1.366c-.093-.282-.122-.48-.073-.498.123-.044.324-.27.324-.366 0-.046-.108-.017-.24.064-.3.185-.362.137-.865-.651-.478-.75-.736-1.479-.933-2.644-.088-.52-.235-1.077-.326-1.239l-.166-.292.345-.003c.19-.002.436-.056.547-.12.183-.105.15-.112-.335-.072-.698.059-.979-.08-1.644-.817a5.847 5.847 0 01-1.213-2.111c-.273-.827-.264-.833.577-.453.963.435 3.239 1.167 3.856 1.24.462.054.5.076.742.444.14.212.502.658.803.99l.547.603.13.938c.186 1.329.481 2.316 1.051 3.505.49 1.024.496 1.04.566 2.024.065.913.392 3.072.556 3.678.087.319.058.372-.283.52zm-2.917-17.422c-.168-.14-.905-.512-1.125-.567l-.204-.05.204.1c.113.056.435.232.716.392.479.272.644.323.409.126zm-.21 18.223c-.367 0-1-.28-1.34-.591-.48-.441-.731-1.048-1.006-2.43-.264-1.324-.389-1.671-1.063-2.946a33.467 33.467 0 01-.866-1.772c-.219-.499-.376-.762-.425-.711-.112.117-.723-.632-1.416-1.737a25.186 25.186 0 00-1.172-1.69c-.32-.414-.655-.9-.743-1.079l-.16-.325.201-.053c.24-.062.776-.6.776-.777 0-.21-.199-.14-.488.17-.369.397-.756.576-1.393.646l-.532.057.45.013c.448.012.451.014.65.406.111.217.314.552.451.746.37.52.477.884.328 1.106-.255.379-.127 1.165.353 2.184.163.345.222.601.222.957 0 .68-.116.768-.515.392-.565-.532-1.335-1.024-2.3-1.47l-.944-.438-.006-.646c-.005-.546-.046-.731-.265-1.195-.337-.714-1.104-1.66-1.61-1.985-.33-.214-.486-.258-.898-.258-.273 0-.63.032-.793.071-.29.07-.299.064-.552-.364-.14-.239-.256-.453-.256-.476 0-.023.106-.041.236-.041s.597-.078 1.038-.172c.858-.184 1.326-.433 1.824-.968l.276-.297.297.203c.744.512 2.683.661 4.045.311.397-.102.883-.185 1.08-.185.35 0 .36.006.408.32.09.58.457 1.589.798 2.193.215.382.635.903 1.169 1.45.459.469.855.93.881 1.023.026.094.105.52.174.948.21 1.285.557 2.14 1.272 3.141.446.623.56.899.74 1.776.21 1.029.364 1.51.712 2.234.255.53.381 1.074.499 2.152.006.059-.055.107-.137.107zm-6.877-2.941c-.3-.867-.675-1.412-1.206-1.754-.44-.283-.425-.127.03.324.688.68 1.182 1.923.991 2.493-.183.547-.727.5-1.533-.132-.568-.445-.968-.97-1.04-1.367-.097-.543.287-1.267.786-1.483.138-.059.234-.124.214-.144-.09-.095-.727.352-.905.637-.454.723-.35 1.245.41 2.066.594.641 1.132.96 1.638.972.716.016.96-.62.615-1.612zm-.51-18.89c-.294-.432-.975-1.186-1.072-1.186-.036 0 .092.202.284.448.192.246.475.63.628.852.26.379.415.502.415.333 0-.04-.115-.242-.255-.448zm-3.15 21.73c-.394.427-.438.451-.774.426-.724-.054-.89-.769-.564-2.42.09-.459.179-.85.196-.867.017-.019.478.318 1.023.747l.99.78-.226.44a4.972 4.972 0 01-.645.893zm-.932-9.659c-.128.083-.798-.47-1.518-1.254-.596-.648-1.426-1.698-1.426-1.804 0-.086.726-.156.99-.095.526.12 1.73 1.573 1.94 2.342.11.4.116.745.014.811zm-.974 4.017c-.086.147-.24.33-.345.405-.104.076-.15.138-.105.138.126 0 .607-.544.607-.686 0-.068-.07-.004-.156.143zM63.316 33.63c-.247 0-.349.016-.225.035.124.02.326.02.45 0s.023-.035-.225-.035zm-1.07-.147c-.232-.032-.438-.04-.458-.02-.02.021.152.065.383.098.23.033.437.043.458.02.02-.021-.151-.066-.383-.098zm-.73-.121c-.112 0-.158.02-.102.043a.303.303 0 00.205 0c.056-.024.01-.043-.103-.043zm-.374-.092c-.096.004-.115.024-.05.051.059.025.13.022.157-.006.027-.029-.021-.049-.107-.045zm-15.875 6.64a54.64 54.64 0 01-.444-.937c-.398-.858-.621-1.22-.842-1.363-.104-.067-.068.013.1.224.162.204.34.598.47 1.042.145.492.295.81.482 1.023.298.339.4.344.234.011zm-.55.396c-.37-.556-.6-.812-.871-.968l-.368-.212.421.413c.232.228.553.632.712.899.16.266.365.527.457.578.093.052.165.083.161.07a31.071 31.071 0 00-.511-.78zm-3.574 1.058c-.778-.017-3.45 1.13-5.333 2.288-.937.577-1.827 1.276-3.02 2.371-1.008.927-3 2.933-2.767 2.788.567-.352 1.633-1.232 2.583-2.13 2.064-1.953 3.488-3.07 4.753-3.73.803-.418 2.51-1.126 3.306-1.371.377-.116.592-.214.478-.216z" fill="#000"/><path d="M0 1.298h11.418v1.22H1.278v7.323h9.124v1.22H1.277v7.452h10.506v1.22H0V1.298zm19.596 18.825L14.434 9.58h1.434l3.858 8.36 3.728-8.36h1.355l-5.057 10.542h-.156zm12.675 4.57a6.17 6.17 0 01-2.398-.468c-.748-.312-1.53-.848-2.347-1.61l.73-.83c.748.71 1.443 1.185 2.086 1.427.643.26 1.269.39 1.877.39 1.06 0 1.903-.173 2.529-.52.625-.328 1.077-.778 1.355-1.35.278-.553.426-1.177.443-1.869l.026-2.389c-.434.745-1.068 1.342-1.903 1.792-.816.45-1.72.675-2.71.675a5.124 5.124 0 01-2.634-.701 5.53 5.53 0 01-1.877-1.921 5.307 5.307 0 01-.704-2.7c0-1.057.244-1.983.73-2.78a5.138 5.138 0 011.982-1.869c.834-.467 1.755-.7 2.763-.7.886 0 1.738.224 2.555.675.817.432 1.425 1.012 1.825 1.74l.104-2.104h1.095v10.308c0 .83-.191 1.61-.574 2.337-.365.744-.955 1.341-1.772 1.791-.8.45-1.86.675-3.181.675zm-4.301-10.1c0 .795.19 1.523.573 2.18.383.64.895 1.16 1.538 1.558.66.38 1.39.571 2.19.571.765 0 1.46-.164 2.086-.493a4.52 4.52 0 001.538-1.376c.4-.571.625-1.186.677-1.844v-1.506c-.208-.969-.712-1.774-1.512-2.414-.799-.64-1.729-.961-2.789-.961-.8 0-1.53.182-2.19.545a4.134 4.134 0 00-1.538 1.506c-.382.64-.573 1.385-.573 2.233zm18.912 5.348c-1.06 0-1.999-.234-2.816-.701a5.187 5.187 0 01-1.929-1.895c-.452-.814-.678-1.723-.678-2.727 0-.986.244-1.887.73-2.7a5.53 5.53 0 011.956-1.948 5.401 5.401 0 012.763-.727c1.216 0 2.233.355 3.05 1.065.834.71 1.434 1.636 1.799 2.778l-8.707 3.35c.33.71.825 1.298 1.486 1.765.677.45 1.468.675 2.372.675.556 0 1.086-.104 1.59-.311a5.167 5.167 0 001.382-.805l.625.883a6.378 6.378 0 01-1.694.934 5.299 5.299 0 01-1.93.364zm-4.223-5.375c0 .33.034.65.104.96l7.508-2.933a4.725 4.725 0 00-1.33-1.61c-.573-.467-1.277-.701-2.111-.701-.782 0-1.486.19-2.112.571a4.41 4.41 0 00-1.512 1.532c-.365.64-.547 1.368-.547 2.181zm13.564-4.985l.104 2.259c.347-.796.912-1.42 1.694-1.87.8-.45 1.669-.675 2.607-.675.956 0 1.73.286 2.32.857.591.554.895 1.281.913 2.181v7.4H62.61v-7.062c-.018-.658-.226-1.203-.626-1.636-.4-.433-.982-.658-1.747-.675a3.85 3.85 0 00-1.903.493A3.893 3.893 0 0056.9 12.23c-.347.589-.521 1.273-.521 2.052v5.452h-1.225V9.581h1.069zm12.271 0h1.225v10.152h-1.225V9.581zm-.26-3.739c0-.242.095-.441.286-.597.191-.173.4-.26.626-.26.243 0 .451.087.625.26a.766.766 0 01.261.597c0 .26-.087.476-.26.65a.914.914 0 01-1.251-.026.812.812 0 01-.288-.624zm7.054 18.773l2.19-4.986-4.719-10.048h1.382l3.962 8.646 3.833-8.646h1.199l-6.57 15.034h-1.277zm14.97-4.674c-.973 0-1.86-.216-2.659-.65a5.106 5.106 0 01-1.877-1.869c-.452-.796-.678-1.722-.678-2.778 0-1.125.244-2.086.73-2.882a4.721 4.721 0 011.981-1.843c.835-.433 1.782-.65 2.842-.65.834 0 1.634.243 2.398.727.782.468 1.365 1.065 1.747 1.792l.13-2.207h1.095v10.152h-1.225v-2.155c-.382.606-.973 1.151-1.773 1.636-.799.485-1.703.727-2.711.727zm.26-1.039c.766 0 1.452-.155 2.06-.467a4.058 4.058 0 001.512-1.35c.383-.571.6-1.23.652-1.974v-1.454a3.955 3.955 0 00-.834-1.713c-.4-.502-.895-.9-1.486-1.195a4.266 4.266 0 00-1.93-.441c-.764 0-1.468.182-2.111.545a3.942 3.942 0 00-1.538 1.48c-.382.64-.574 1.394-.574 2.26 0 .795.192 1.523.574 2.18a4.56 4.56 0 001.538 1.558c.66.38 1.373.571 2.138.571zm32.672-.467c-.417.277-.947.528-1.59.753a13.58 13.58 0 01-2.008.545 10.23 10.23 0 01-2.007.208c-1.46 0-2.781-.234-3.962-.701-1.165-.485-2.164-1.143-2.998-1.973a8.972 8.972 0 01-1.93-2.934c-.434-1.126-.651-2.337-.651-3.636 0-1.402.243-2.691.73-3.868a9.315 9.315 0 012.059-3.038 9.115 9.115 0 013.024-2 9.58 9.58 0 013.65-.7c.973 0 1.885.12 2.737.363a9.546 9.546 0 012.346.987l-.469 1.142c-.608-.363-1.321-.658-2.138-.883a8.631 8.631 0 00-2.346-.337c-1.182 0-2.277.208-3.285.623a8.025 8.025 0 00-2.633 1.74 7.982 7.982 0 00-1.746 2.622c-.417 1.004-.626 2.095-.626 3.272 0 1.523.339 2.899 1.017 4.128a7.502 7.502 0 002.867 2.882c1.234.71 2.677 1.065 4.328 1.065.73 0 1.495-.087 2.294-.26.799-.173 1.486-.424 2.06-.753v-5.115h-4.172v-1.22h5.449v7.088zm7.931 1.584c-.956 0-1.721-.277-2.295-.831-.573-.571-.877-1.307-.912-2.207v-7.4h1.225v7.036c.035.658.244 1.203.626 1.636.4.433.991.667 1.773.701.66 0 1.277-.173 1.851-.519a3.962 3.962 0 001.381-1.402c.365-.606.548-1.29.548-2.051V9.58h1.225v10.152h-1.095l-.078-2.155c-.348.71-.921 1.298-1.721 1.766a4.984 4.984 0 01-2.528.675zM142.247 9.58l.104 2.259a3.932 3.932 0 011.695-1.87 5.222 5.222 0 012.606-.675c.956 0 1.73.286 2.321.857.59.554.895 1.281.912 2.181v7.4h-1.251V12.67c-.018-.658-.226-1.203-.626-1.636-.4-.433-.982-.658-1.747-.675-.677 0-1.312.164-1.903.493a3.891 3.891 0 00-1.433 1.376c-.348.589-.522 1.273-.522 2.052v5.452h-1.225V9.581h1.069zm12.271 10.152V0h1.225v14.358l5.709-4.985.756.65-3.91 3.427 4.536 6.283H161.4l-3.936-5.556-1.721 1.506v4.05h-1.225zm10.211-5.14c0-.988.235-1.888.704-2.701a5.327 5.327 0 011.955-1.922c.834-.484 1.764-.727 2.79-.727 1.042 0 1.972.243 2.789.727a5.126 5.126 0 011.929 1.922 5.31 5.31 0 01.704 2.7 5.31 5.31 0 01-.704 2.7 5.265 5.265 0 01-1.955 1.948c-.817.467-1.747.7-2.79.7-1.025 0-1.946-.224-2.763-.674a5.392 5.392 0 01-1.955-1.896c-.469-.813-.704-1.74-.704-2.778zm1.225.025c0 .796.183 1.523.548 2.181a4.41 4.41 0 001.512 1.532c.643.38 1.355.571 2.137.571.783 0 1.486-.19 2.112-.57a4.132 4.132 0 001.512-1.533 4.255 4.255 0 00.574-2.18c0-.797-.191-1.515-.574-2.156a4.077 4.077 0 00-1.512-1.558 3.85 3.85 0 00-2.112-.597 3.9 3.9 0 00-2.163.623 4.34 4.34 0 00-1.486 1.584 4.269 4.269 0 00-.548 2.103z" fill="#000"/></svg>