<svg width="150" height="60" fill="none" xmlns="http://www.w3.org/2000/svg"><path d="M0 1.053h9.718v.99h-8.63v5.94h7.764v.991H1.087v6.046h8.941v.99H0V1.053zm16.677 15.273l-4.393-8.553h1.22l3.284 6.783 3.172-6.783h1.154l-4.304 8.553h-.133zm10.787 3.707a5.476 5.476 0 01-2.04-.379c-.637-.253-1.302-.688-1.998-1.306l.622-.674c.636.576 1.227.962 1.775 1.159.547.21 1.08.316 1.597.316.902 0 1.62-.14 2.152-.422.532-.266.917-.631 1.154-1.095.236-.45.362-.955.377-1.517l.022-1.938c-.37.604-.91 1.089-1.62 1.454a4.886 4.886 0 01-2.307.547c-.813 0-1.56-.19-2.24-.568a4.594 4.594 0 01-1.598-1.56c-.4-.66-.6-1.39-.6-2.19 0-.857.208-1.608.622-2.254a4.292 4.292 0 011.686-1.517 4.913 4.913 0 012.352-.569c.754 0 1.48.183 2.174.548.695.351 1.213.822 1.553 1.412l.089-1.707h.932v8.363c0 .675-.163 1.306-.488 1.896-.31.604-.814 1.089-1.509 1.454-.68.365-1.583.547-2.707.547zm-3.66-8.194c0 .646.162 1.236.488 1.77.325.52.761.94 1.309 1.263a3.805 3.805 0 001.863.464c.651 0 1.243-.134 1.775-.4a3.79 3.79 0 001.31-1.117c.34-.463.532-.962.576-1.496v-1.221c-.177-.787-.606-1.44-1.287-1.96-.68-.52-1.471-.779-2.374-.779a3.95 3.95 0 00-1.863.442 3.447 3.447 0 00-1.31 1.222c-.325.52-.488 1.124-.488 1.812zm16.095 4.34c-.903 0-1.701-.19-2.396-.57a4.323 4.323 0 01-1.642-1.537c-.385-.66-.577-1.397-.577-2.212 0-.8.207-1.53.621-2.19a4.605 4.605 0 011.664-1.58 4.771 4.771 0 012.352-.59c1.035 0 1.9.287 2.596.863.71.576 1.22 1.327 1.53 2.254l-7.41 2.718a3.638 3.638 0 001.265 1.432c.577.365 1.25.548 2.019.548.473 0 .924-.085 1.353-.253a4.453 4.453 0 001.176-.653l.533.716a5.51 5.51 0 01-1.442.759 4.704 4.704 0 01-1.642.294zm-3.594-4.361c0 .267.03.527.088.78l6.39-2.381a3.88 3.88 0 00-1.131-1.306c-.489-.38-1.088-.569-1.797-.569-.666 0-1.265.154-1.798.463a3.665 3.665 0 00-1.286 1.243c-.311.52-.466 1.11-.466 1.77zm11.543-4.045l.089 1.833c.296-.646.777-1.152 1.442-1.517a4.619 4.619 0 012.219-.547c.813 0 1.471.231 1.974.695.503.45.762 1.039.777 1.77v6.003h-1.065v-5.73c-.015-.534-.192-.976-.533-1.327-.34-.351-.835-.534-1.486-.548-.577 0-1.117.134-1.62.4a3.25 3.25 0 00-1.22 1.117c-.296.477-.444 1.032-.444 1.664v4.424H46.94V7.773h.91zm10.444 0h1.043v8.237h-1.043V7.773zM58.07 4.74c0-.197.081-.358.244-.485a.8.8 0 01.532-.21c.208 0 .385.07.533.21a.609.609 0 01.222.485c0 .21-.074.386-.222.526a.793.793 0 01-.532.19.798.798 0 01-.533-.21.647.647 0 01-.244-.506zm6.004 15.23l1.864-4.044-4.016-8.153h1.176l3.372 7.015 3.261-7.015h1.02l-5.59 12.197h-1.087zm12.74-3.791a4.865 4.865 0 01-2.263-.527 4.253 4.253 0 01-1.597-1.517c-.385-.646-.577-1.397-.577-2.254 0-.913.207-1.692.621-2.338a3.949 3.949 0 011.686-1.496c.71-.351 1.517-.527 2.419-.527.71 0 1.39.197 2.04.59.666.38 1.162.864 1.487 1.454l.111-1.79h.932v8.236H80.63v-1.749c-.325.492-.828.934-1.508 1.328-.68.393-1.45.59-2.308.59zm.222-.843c.651 0 1.235-.127 1.753-.38a3.406 3.406 0 001.287-1.095 3.13 3.13 0 00.554-1.6v-1.18a3.15 3.15 0 00-.71-1.39 3.677 3.677 0 00-1.264-.97 3.778 3.778 0 00-1.642-.358c-.65 0-1.25.148-1.797.442a3.29 3.29 0 00-1.31 1.201c-.325.52-.487 1.13-.487 1.833 0 .646.162 1.236.488 1.77.325.52.762.94 1.309 1.263a3.717 3.717 0 001.819.464zm27.805-.38c-.355.225-.806.429-1.353.612-.533.182-1.102.33-1.709.442a9.162 9.162 0 01-1.708.168c-1.243 0-2.367-.19-3.373-.568-.99-.393-1.841-.927-2.55-1.601a7.264 7.264 0 01-1.643-2.38 7.778 7.778 0 01-.554-2.95c0-1.137.207-2.184.62-3.139a7.552 7.552 0 011.754-2.464 7.797 7.797 0 012.573-1.622 8.501 8.501 0 013.106-.57c.828 0 1.605.1 2.33.296a8.365 8.365 0 011.997.8l-.4.927a7.536 7.536 0 00-1.819-.716 7.685 7.685 0 00-1.997-.274 7.576 7.576 0 00-2.795.506 6.857 6.857 0 00-2.241 1.411 6.462 6.462 0 00-1.487 2.128 6.57 6.57 0 00-.532 2.654c0 1.236.288 2.352.865 3.35.577.982 1.39 1.762 2.44 2.338 1.05.575 2.278.863 3.684.863a9.66 9.66 0 001.952-.21c.68-.14 1.265-.344 1.753-.611v-4.15h-3.55v-.99h4.637v5.75zm6.749 1.286c-.813 0-1.464-.225-1.952-.674-.488-.464-.747-1.06-.777-1.791V7.773h1.043v5.71c.03.533.207.975.533 1.326.34.351.843.54 1.508.569.562 0 1.087-.14 1.575-.421.489-.281.88-.66 1.176-1.138a3.046 3.046 0 00.466-1.664V7.773h1.043v8.237h-.932l-.066-1.749c-.296.576-.784 1.054-1.465 1.433a4.403 4.403 0 01-2.152.548zm9.469-8.469l.089 1.833c.296-.646.776-1.152 1.442-1.517a4.618 4.618 0 012.219-.547c.813 0 1.471.231 1.974.695.503.45.762 1.039.777 1.77v6.003h-1.065v-5.73c-.015-.534-.193-.976-.533-1.327s-.835-.534-1.486-.548c-.577 0-1.117.134-1.62.4a3.252 3.252 0 00-1.22 1.117c-.296.477-.444 1.032-.444 1.664v4.424h-1.042V7.773h.909zm10.444 8.237V0h1.042v11.65l4.859-4.045.644.526-3.328 2.781 3.86 5.098h-1.22l-3.35-4.508-1.465 1.222v3.286h-1.042zm8.69-4.171c0-.8.199-1.53.599-2.19.414-.66.969-1.18 1.664-1.56.71-.393 1.501-.59 2.374-.59.887 0 1.679.197 2.374.59.695.38 1.242.899 1.641 1.56.4.66.599 1.39.599 2.19s-.199 1.53-.599 2.19a4.381 4.381 0 01-1.664 1.58c-.695.38-1.486.57-2.373.57-.873 0-1.657-.183-2.352-.548a4.498 4.498 0 01-1.664-1.538c-.4-.66-.599-1.411-.599-2.254zm1.042.021c0 .646.156 1.236.466 1.77.326.52.755.933 1.287 1.242a3.64 3.64 0 001.82.464c.665 0 1.264-.155 1.797-.464a3.43 3.43 0 001.286-1.242 3.328 3.328 0 00.488-1.77c0-.646-.162-1.229-.488-1.748a3.382 3.382 0 00-1.286-1.264 3.399 3.399 0 00-1.797-.485 3.44 3.44 0 00-1.842.506 3.607 3.607 0 00-1.265 1.285 3.343 3.343 0 00-.466 1.706z" fill="#000"/><path fill-rule="evenodd" clip-rule="evenodd" d="M71.486 43.51c-.115-.366-.399-.84-1.027-1.718-.51-.713-.915-1.363-1.947-3.126-.964-1.648-1.698-2.194-4.217-3.134-2.047-.764-2.799-1.162-4.316-2.284-.886-.655-1.396-.962-2.067-1.242-.903-.378-1.56-.507-4.233-.829a87.069 87.069 0 01-2.015-.266c-.413-.062-1.415-.198-2.225-.3a63.341 63.341 0 01-3.416-.572c-2.817-.558-3.886-.699-5.877-.776-2.54-.098-3.971.3-6.382 1.78-1.819 1.116-2.37 1.34-4.458 1.806-1.408.315-1.963.473-2.736.778-.735.29-.926.387-2.354 1.203-2.94 1.679-4.165 2.102-7.798 2.697a76.936 76.936 0 00-2.947.54c-1.53.329-4.883 1.194-4.985 1.285-.114.103-.04.264.12.264.073 0 .798-.174 1.612-.386 2.774-.724 4.218-1.036 6.23-1.347 3.567-.551 5.113-1.087 8-2.77 1.108-.648 2.165-1.154 2.907-1.395.309-.1 1.148-.316 1.865-.48 2.451-.563 2.76-.683 4.521-1.76 1.292-.79 1.664-.992 2.297-1.25 2.091-.853 4.933-.827 9.514.088.988.197 2.223.424 2.745.504.654.1 1.095.203 1.421.331 1.031.407 1.476.548 2.45.776.56.13 1.026.229 1.037.218.011-.011-.446-.15-1.016-.308-.97-.269-2.065-.687-1.921-.735.035-.011.736.074 1.557.19s1.967.266 2.546.333c2.272.262 3.154.494 4.216 1.11.505.294.798.568 1.137 1.065.268.391.602.76.602.666 0-.023-.109-.211-.241-.42-.132-.207-.24-.394-.24-.416 0-.02.196.105.435.28 1.151.84 1.921 1.222 4.127 2.046 1.568.586 2.175.92 2.805 1.545.404.401.765.93 1.442 2.115.57.997.992 1.663 1.533 2.415.438.608.455.638.354.618a.518.518 0 00-.21.028c-.377.128-.09.824.468 1.137l.202.113-.16-.173c-.18-.193-.471-.713-.471-.84s.167-.16.318-.062c.187.121.478.729.511 1.068.024.24.006.3-.127.432-.132.13-.208.154-.504.152-.828-.003-1.968-.785-2.436-1.671-.108-.206-.3-.378-.89-.798-1.06-.757-2.015-1.738-2.124-2.186-.031-.125-.01-.17.115-.236.143-.076.316-.295.233-.295-.02 0-.163.087-.318.193-.237.164-.333.194-.612.19-.422-.005-1.89-.45-2.943-.893-.427-.18-.9-.343-1.05-.363l-.272-.037.244-.287c.134-.158.234-.318.221-.355-.012-.037-.139.069-.28.235-.305.358-.44.433-1.003.56-.658.15-.977.17-1.61.103-.627-.066-.951-.17-1.17-.373-.17-.159-.171-.248-.006-.478.071-.1.102-.171.067-.159-.129.048-.531.45-.599.599-.076.168-.485.52-.773.664-.24.12-1.208.295-1.501.27-.22-.017-.248-.045-.548-.525a9.055 9.055 0 00-.381-.58c-.076-.084-.222-.044-.267.074-.017.044.258.552.612 1.129.353.577.67 1.096.703 1.153.089.154.987 1.243 1.352 1.64.454.492 1.339 1.13 1.836 1.325 2 .78 3.153 1.95 3.642 3.696.325 1.158-.069 1.963-.955 1.955-.434-.004-.8-.168-1.33-.598a38.468 38.468 0 00-.966-.748 42.99 42.99 0 01-1.518-1.225l-.946-.798.171-.159c.158-.146.47-.663.4-.663-.016 0-.083.105-.148.232a1.488 1.488 0 01-.307.387l-.188.157-.34-.26a6.817 6.817 0 00-1.659-.962 32.626 32.626 0 01-1.63-.766c-.974-.489-1.56-.698-2.199-.787-.225-.031-.333-.096-.616-.367-.189-.181-.344-.347-.346-.368 0-.021-.084-.132-.185-.247l-.182-.209.127.268c.07.148.197.4.28.561l.153.292-.46-.034c-.364-.028-.5-.066-.658-.185a4.437 4.437 0 01-.844-.902c-.117-.164-.213-.268-.213-.232 0 .074.258.44.644.91.144.178.254.33.245.34-.056.055-.685-.136-1.1-.334-.719-.342-2.32-1.63-2.99-2.403-.29-.334-.587-.72-.662-.86-.075-.138-.173-.266-.22-.284-.045-.017-.168.056-.274.164-.28.286-.772.522-1.958.94-1.595.562-1.974.774-2.82 1.578-.574.545-1.057 1.143-1.691 2.09-.792 1.182-1.458 2.016-2.194 2.743-1.016 1.006-1.328 1.214-5.054 3.369a97.286 97.286 0 00-2.857 1.72c-2.013 1.282-2.462 1.62-3.609 2.723-1.143 1.099-1.693 1.559-2.496 2.087-1.195.786-1.982 1.156-4.422 2.076-1.996.753-3.62 1.137-5.518 1.303-.833.073-.958.124-.79.324.065.08.167.088.622.055 1.075-.078 2.805-.384 3.897-.69 1.115-.312 3.8-1.35 4.867-1.88 1.474-.733 2.352-1.371 3.82-2.776 1.17-1.12 1.734-1.566 3.118-2.465 1.407-.914 2.095-1.33 4.39-2.658 1.092-.63 2.283-1.344 2.647-1.584 1.442-.952 2.358-1.93 3.877-4.139 1.555-2.261 2.171-2.77 4.248-3.512 1.11-.396 1.637-.624 1.957-.848l.158-.11.31.401c.543.705.991 1.196 1.239 1.36.132.087.36.256.507.375 1.182.962 1.605 1.237 2.202 1.428.435.14.681.172 1.857.251 1.296.087 1.802.221 2.893.771.5.252 1.247.605 1.657.783.411.178.937.446 1.169.596.426.276 1.683 1.27 2.08 1.647.242.227.238.15.05 1.101-.273 1.369-.008 2.077.774 2.078.48 0 .862-.296 1.306-1.013a8.28 8.28 0 01.184-.29c.01-.01.143.065.295.169.67.457 1.36.571 1.875.31.312-.157.643-.535.734-.837.232-.769-.14-2.123-.865-3.153-.296-.419-.298-.434-.14-.955.099-.325.017-.743-.255-1.302-.227-.466-.3-.97-.157-1.088.077-.063.15.02.491.549.22.342.622.88.894 1.195.423.491.58.742 1.108 1.78.594 1.165.621 1.236.797 2.07.202.965.384 1.395.738 1.745.41.406 1.234.69 1.539.528.161-.086.239-.376.188-.705-.021-.14-.028-.255-.014-.255.013 0 .116.07.227.154.516.39 1.333.5 1.836.249.464-.233.473-.288.25-1.515a22.655 22.655 0 01-.248-1.75c-.063-.786-.073-.817-.517-1.7-.33-.656-.582-1.451-.664-2.098l-.042-.34.294.21c.161.116.424.3.584.412.165.116.426.395.607.651.46.65 1.012 1.137 1.637 1.445.467.229.577.259 1.01.275.407.015.518-.002.685-.106.346-.215.456-.693.285-1.237zm-4.038 5.445c-.335.138-.79.105-1.198-.087-.701-.33-1.172-1.064-1.457-2.273-.082-.346-.2-.776-.262-.956-.068-.197-.09-.336-.053-.348.09-.031.238-.19.238-.256 0-.032-.08-.012-.176.044-.22.13-.267.096-.637-.455-.351-.525-.54-1.035-.686-1.85-.064-.364-.172-.754-.24-.866l-.121-.205.253-.002c.14-.001.32-.039.402-.084.135-.073.111-.078-.245-.05-.514.04-.72-.056-1.21-.572a4.047 4.047 0 01-.891-1.476c-.2-.579-.195-.583.424-.318.708.305 2.381.817 2.835.868.34.038.367.053.545.31.104.15.37.461.59.693l.404.422.095.656c.136.93.354 1.62.773 2.452.36.717.364.728.416 1.416.048.639.288 2.15.409 2.573.063.223.042.26-.209.364zm-2.145-12.188c-.124-.098-.666-.358-.827-.396l-.15-.036.15.071c.082.039.32.162.526.274.352.19.473.225.3.087zm-.155 12.748c-.27 0-.734-.195-.985-.414-.353-.308-.538-.732-.74-1.7-.194-.926-.285-1.168-.78-2.06a23.13 23.13 0 01-.638-1.24c-.16-.349-.277-.533-.313-.497-.082.081-.53-.442-1.04-1.215a17.76 17.76 0 00-.862-1.183c-.236-.29-.482-.629-.547-.754l-.117-.228.148-.037c.176-.043.57-.42.57-.543 0-.147-.146-.099-.358.119-.272.277-.557.403-1.025.451l-.391.04.33.01c.33.008.333.009.48.283.08.152.23.387.33.522.272.364.351.619.241.774-.187.265-.093.815.26 1.527.12.242.163.421.163.67 0 .476-.085.538-.379.275-.415-.372-.981-.717-1.69-1.03l-.695-.305-.004-.452c-.004-.382-.034-.511-.195-.836-.248-.5-.812-1.16-1.183-1.389-.244-.15-.358-.18-.66-.18-.202 0-.464.022-.584.05-.213.048-.22.044-.406-.255a2.718 2.718 0 01-.188-.333c0-.016.078-.029.174-.029.095 0 .439-.054.763-.12.63-.129.975-.303 1.341-.678l.203-.207.218.142c.547.358 1.973.463 2.974.218.292-.072.65-.13.795-.13.257 0 .264.005.3.224.066.406.335 1.111.586 1.534.158.267.467.632.86 1.014.337.329.628.65.647.716.02.066.077.364.129.663.154.9.409 1.498.935 2.198.327.435.412.628.544 1.242.154.72.267 1.056.523 1.563.188.371.28.751.367 1.505.005.041-.04.075-.1.075zm-5.056-2.057c-.22-.607-.496-.988-.887-1.227-.323-.199-.312-.089.023.226.505.475.868 1.346.728 1.744-.134.383-.534.35-1.127-.092-.418-.311-.712-.679-.764-.956-.072-.38.21-.887.577-1.037.101-.042.172-.087.157-.102-.066-.066-.534.247-.665.446-.334.506-.257.871.301 1.445.437.449.833.672 1.204.68.528.011.706-.433.453-1.127zm-.375-13.215c-.216-.302-.717-.83-.788-.83-.027 0 .067.142.209.314.14.172.349.44.462.596.191.265.304.351.304.233 0-.028-.084-.169-.187-.313zm-2.316 15.2c-.29.3-.322.317-.57.3-.531-.039-.654-.538-.414-1.693.066-.322.131-.595.144-.607.013-.013.352.222.752.523l.729.546-.167.307c-.091.17-.304.45-.474.625zm-.686-6.755c-.094.057-.586-.33-1.116-.878-.437-.453-1.048-1.188-1.048-1.262 0-.06.534-.109.728-.066.387.084 1.271 1.1 1.427 1.638.08.28.084.522.01.568zM56 45.498c-.063.102-.178.23-.254.283-.076.053-.11.096-.077.096.093 0 .446-.38.446-.48 0-.047-.052-.002-.115.1zm-1.028-13.08c-.181 0-.256.011-.165.025.091.013.24.013.33 0 .092-.014.017-.025-.165-.025zm-.787-.102c-.17-.023-.321-.03-.336-.015-.015.015.112.046.281.07.17.022.322.029.337.013.016-.015-.111-.046-.282-.069zm-.536-.086c-.083 0-.116.014-.075.03a.235.235 0 00.15 0c.042-.016.008-.03-.075-.03zm-.276-.064c-.07.003-.084.017-.036.036.044.017.095.015.115-.005.02-.02-.015-.033-.078-.03zm-11.67 4.647a38.19 38.19 0 01-.327-.656c-.292-.6-.457-.853-.62-.953-.075-.047-.05.009.074.156.12.144.25.419.347.73.106.344.216.566.354.715.219.237.294.24.171.008zm-.404.276c-.273-.388-.443-.567-.642-.677l-.27-.148.31.29c.17.158.406.441.523.628.117.186.269.368.337.404.067.037.12.058.118.049a20.12 20.12 0 00-.376-.546zm-2.629.74c-.572-.011-2.537.791-3.92 1.602-.69.403-1.344.892-2.221 1.658-.742.648-2.206 2.052-2.034 1.95.416-.246 1.2-.861 1.899-1.49 1.517-1.366 2.564-2.148 3.494-2.609.59-.292 1.846-.788 2.43-.96.278-.08.436-.148.352-.15zm104.868 4.599c-.042-.12-.233-.084-.652.124-1.059.523-1.782.647-3.527.602-.715-.018-1.565-.071-1.89-.118a18.018 18.018 0 00-1.24-.122 70.328 70.328 0 01-1.595-.12c-1.495-.13-2.352-.153-6.407-.174-2.778-.014-4.177-.046-5.167-.116-1.506-.108-1.469-.101-3.75-.646-2.961-.708-3.678-.81-4.746-.68-.683.084-1.085.268-1.442.66-.826.91-.967 1.02-1.821 1.426-.78.371-.842.413-1.381.953-.58.58-.931.81-1.624 1.065-.39.143-.774.382-1.269.787-.845.691-2.347 1.06-3.328.816-.479-.119-.503-.105-.659.38-.137.424-.287.715-.59 1.14-.356.499-.374.542-.533 1.287a5.01 5.01 0 00-.13 1.361c.013.665.007.7-.148.932-.185.279-.596.539-.916.58-.313.04-.591-.157-.796-.566-.283-.566-.356-.946-.385-2.007-.032-1.14.035-1.705.29-2.464.204-.61.299-1.596.168-1.753-.166-.197-.278-.101-.563.482-.245.501-.349.639-.861 1.14-.32.314-.621.63-.668.702-.047.072-.14.345-.208.608-.16.624-.29.919-.65 1.458-.349.523-.415.728-.418 1.279-.001.508-.09 1.14-.21 1.502-.113.34-.388.614-.7.697-.329.087-.708-.07-.932-.388-.16-.228-.162-.239-.079-.51.166-.538.178-1.192.035-1.9l-.13-.647.19-.575c.165-.5.194-.689.23-1.452.03-.675.065-.93.15-1.11.125-.261 2.543-2.664 3.278-3.257.708-.572 1.601-.939 2.58-1.06.523-.065.581-.084.598-.199.07-.481-2.038.03-3.097.75-.155.106-.554.431-.886.723-2.462 2.16-3.52 2.692-4.898 2.466-.29-.047-.651-.103-.803-.123-.297-.04-.858-.362-1.137-.652-.244-.256-.465-.722-.471-.997-.008-.351.207-.552.832-.776.829-.297 1.219-.538 2.064-1.276.629-.549.728-.605 1.55-.868.703-.226 2.062-.901 2.526-1.256.343-.262.56-.51 1.016-1.17.209-.301.42-.523.653-.685.42-.292.694-.592.844-.928.137-.306.122-.512-.038-.512-.081 0-.172.114-.316.396-.166.325-.27.444-.573.658a3.894 3.894 0 00-.444.35c-.106.125-.293.107-.625-.06-.16-.08-.3-.145-.313-.145-.056 0 .314.256.496.344l.203.097-.27.408c-.149.224-.301.426-.338.45-.16.101-.655-.066-1.159-.39-.357-.23-.488-.268-.33-.096.126.14.886.516 1.142.566.105.021.19.056.19.078 0 .053-.34.365-.561.514-.364.246-1.845.945-2.25 1.063-.527.153-.519.154-.398-.04.169-.27.5-.587.652-.625.105-.026.139-.07.125-.162-.016-.107-.078-.136-.403-.19-.523-.085-.853-.283-1.217-.73-.3-.367-.355-.494-.605-1.404l-.057-.205-.003.205c-.004.18.022.338.14.856.03.125.019.127-.818.134-1.008.008-1.49-.058-2.4-.33-.727-.218-.822-.274-1.045-.622-.08-.124-.159-.211-.176-.194-.017.017.053.151.156.299l.187.268-.394.183c-.441.204-1.008.285-1.669.238-.541-.038-1.307.07-2.005.283-.63.192-1.91.325-2.465.255-.71-.09-1.505-.68-1.506-1.117 0-.17.25-.457.552-.631.372-.215 2.34-.956 3.139-1.182a11.05 11.05 0 001.39-.519c.803-.376 1.291-.49 2.094-.492.325 0 .923-.055 1.329-.12.87-.142 1.54-.162 2.982-.093 1.195.058 1.189.059 3.336-.41 1.667-.363 2.422-.625 3.691-1.276 1.283-.66 1.518-.74 2.759-.958a11.962 11.962 0 001.702-.42c.988-.338 1.276-.393 2.449-.465 2.232-.137 2.678-.225 3.927-.77 1.679-.732 1.717-.742 3.218-.807 1.565-.068 1.923-.167 3.275-.903 1.507-.82 2.134-.916 4.989-.764 2.344.125 2.599.104 3.635-.303.907-.356 1.513-.662 2.145-1.082.838-.558 2.09-1.092 3.259-1.39.428-.108 1.012-.197 1.712-.26.585-.052 1.245-.136 1.468-.186.47-.106 1.278-.43 2.128-.852 1.215-.604 1.613-.677 5.65-1.038.375-.034.868-.061 1.095-.061.451 0 .586-.067.491-.243-.091-.168-.42-.158-3.273.1-1.336.122-2.723.35-3.24.534-.232.082-.754.314-1.16.516-1.233.61-1.621.722-2.952.851-.633.062-1.354.152-1.602.2-1.133.222-2.848.92-3.789 1.544-.698.463-1.052.643-1.993 1.017-.967.385-1.292.419-3.068.323-1.783-.097-3.029-.097-3.573-.001-.678.12-1.128.29-2.185.831-1.389.71-1.559.756-3.042.817-1.49.062-1.721.116-3.011.7-1.346.61-1.889.741-3.395.819-1.809.093-2.068.136-3.314.552-.495.166-1.093.312-1.66.405-1.141.188-1.431.288-2.645.909-.552.282-1.22.595-1.486.695-.651.247-1.81.542-3.268.833l-1.21.242-1.093-.05c-1.438-.067-2.101-.051-2.746.065-.292.053-.983.12-1.535.148-.552.029-1.11.082-1.24.118-.13.036-.542.206-.916.377-.373.171-1.005.406-1.403.522-.845.246-2.553.879-3.073 1.139-.637.318-.956.759-.872 1.203.091.482.962 1.148 1.641 1.255.636.1 1.947-.008 2.703-.225.844-.24 1.252-.295 2.185-.289.842.005 1.146-.046 1.605-.273l.276-.136.551.17c1.002.312 1.602.405 2.61.405h.92l.242.318c.249.327.668.636.957.707.185.045.195.07.08.198-.046.05-.216.308-.377.572-.527.86-1.615 1.732-2.606 2.086-.83.296-1.061.473-1.195.915-.13.432.192 1.19.693 1.626.239.208.825.535 1.107.619.128.037.123.116-.117 1.784-.175 1.218-.158 1.487.143 2.273.215.562.215.563.203 1.41-.016 1.1.048 1.418.349 1.716.223.22.238.226.576.202.405-.03 1.01-.299 1.268-.565l.167-.173.212.232c.284.311.511.418.9.42.377.003.73-.153.962-.426.307-.362.512-1.207.515-2.127.001-.457.094-.721.414-1.182.252-.362.492-.908.612-1.393.14-.564.208-.67.715-1.12.247-.218.558-.562.693-.765.135-.203.253-.36.263-.351.017.017-.09.42-.342 1.28-.157.535-.228 2.363-.116 3.001.099.564.33 1.22.536 1.515.191.275.576.495.864.495.488 0 1.137-.417 1.396-.898.116-.214.129-.318.118-.913a5.555 5.555 0 01.11-1.286c.13-.65.249-.92.665-1.499a3.41 3.41 0 00.388-.747l.13-.388.216.046c.119.025.5.04.848.035 1.087-.017 2.006-.348 2.877-1.036.556-.44.652-.495 1.208-.702.616-.23.907-.427 1.602-1.086.603-.572.692-.635 1.24-.865.73-.306 1.16-.62 1.705-1.245.263-.303.521-.535.687-.619.56-.283 1.86-.319 3.012-.083.308.063 1.292.29 2.185.503.893.213 1.863.438 2.155.499 1.011.21 2.919.297 7.057.32 4.058.022 4.806.043 6.348.174.52.044 1.238.098 1.595.12.357.02.928.076 1.27.122.899.121 2.98.17 3.631.084.604-.079 1.597-.388 2.102-.654.344-.182.412-.254.365-.388zm-13.901-3.114c-.61-.202-.617-.202-1.646-.196-.879.006-1.201.035-2.156.197-1.028.175-1.188.188-1.921.154-1.351-.062-2.888-.273-5.196-.711-1.431-.272-3.546-.245-4.723.062-.178.046-.236.072-.128.057.109-.015.614-.07 1.122-.12 1.386-.14 2.193-.06 4.144.414 1.773.43 2.655.572 4.173.669.968.062 1.372.02 2.158-.227.778-.244 1.061-.284 2.354-.33 1.125-.04 1.159-.038 1.728.116.789.214.842.163.091-.085zm.096-2.491a17.76 17.76 0 01-.502.12 7.083 7.083 0 00-.633.175c-.137.048-.748.198-1.358.334-1.085.24-1.133.246-2.202.246-.601 0-1.358-.031-1.683-.07a287.66 287.66 0 01-4.485-.566c-.865-.13-2.195-.17-2.956-.088-1.205.127-2.466.463-3.401.905-.49.232-.478.194.048-.154.485-.32 1.21-.685 1.966-.988.615-.246.643-.31.036-.085-.661.246-1.814.83-2.487 1.259-.837.533-1.125.77-1.079.888.029.076.182.021.868-.307 1.364-.653 2.118-.9 3.459-1.135.614-.107 2.952-.127 3.691-.032l1.978.26c2.951.391 3.73.409 5.433.123 1.327-.222 3.217-.703 3.366-.857.041-.042.022-.05-.059-.028zm-12.229-3.113c-.069.003-.083.017-.036.035.043.017.094.015.113-.004.02-.02-.015-.034-.077-.031zm-1.752-.61c-.595-.434-.783-.519-1.226-.55-1.157-.082-2.293.59-3.139 1.857-.686 1.027-.969 1.286-1.404 1.285-.178 0-.357-.05-.529-.148-.142-.08-.27-.135-.284-.122-.014.014.149.11.362.214.366.179.401.185.647.117.363-.1.634-.342 1.114-.991.55-.746 1.059-1.255 1.498-1.5.389-.216 1.144-.434 1.508-.434.267 0 1.249.301 1.621.497.143.075.26.126.26.113 0-.013-.193-.165-.428-.337zm-3.726 7.064c-.074-.225-.076-.217-.05.22.02.34.001.52-.076.719-.056.146-.09.279-.074.294.051.051.228-.462.253-.733a1.5 1.5 0 00-.053-.5zm-.362-.705c-.047-.063-.087-.084-.088-.048-.001.037.038.099.087.139.112.092.113.055.001-.091zm-1.278-.11c-.04.025-.183.377-.489 1.204-.147.397-.641 1.064-.993 1.34-.744.581-1.492.81-2.796.856-.95.033-1.548-.044-2.172-.279-.164-.061-.31-.1-.325-.085-.086.085 1.422.507 2.203.617a8.8 8.8 0 00.974.06c1.445.003 2.853-.885 3.307-2.086.129-.343.368-1.673.291-1.627zm-1.606-3.84c-.076.062-.098.166-.091.439l.009.358.036-.35c.019-.193.06-.39.091-.439.048-.076.041-.077-.045-.007zm-.085 7.488c-.406.313-.999.668-1.305.781-.472.175-1.269.161-1.976-.035-.673-.186-.587-.099.107.108.416.125.661.16 1.128.165.591.005.603.003 1.095-.244a4.77 4.77 0 00.806-.516c.318-.276.433-.48.145-.26zm-1.072-6.98c-.074-.045-.083.022-.094.727-.009.574-.153.987-.555 1.599-.275.416-.51.6-1.276.999-.65.338-.668.353-.23.201.593-.205 1.024-.468 1.442-.879.583-.574.684-.822.736-1.81.029-.556.022-.809-.023-.837zm-2.815 9.702c-.327-.233-.62-.523-1.314-1.307-.341-.385-1.044-.936-1.11-.87-.015.014.075.089.2.165.218.133.54.461 1.368 1.393.35.393 1.007.938 1.133.938.118 0 .032-.1-.277-.32zm-1.127-.04c-.09-.073-.596-.707-1.269-1.589a1.894 1.894 0 00-.621-.549l-.345-.19.236.034c.13.018.314.057.409.086.094.03.184.041.2.026.056-.056-.325-.158-.786-.21-.566-.065-.883-.06-.482.006.62.103 1.061.488 1.943 1.693.247.337.53.66.631.719.198.115.24.102.084-.025zm-.961-6.012c-.027.399-.066.55-.197.772-.26.437-.517.598-1.52.953-1.593.563-3.36 1.4-3.897 1.845-.199.164-.143.136.673-.349.608-.36.843-.46 1.742-.74 2.557-.792 2.854-.916 3.119-1.306.124-.183.134-.256.125-.935-.01-.71-.012-.719-.045-.24zm-.433 6.478c-.206-.241-.349-.283-.94-.277-.596.006-.528.095.081.105.432.008.63.083.829.315.099.116.161.155.162.1 0-.048-.059-.157-.132-.243zm-1.368 2.524c-.22-.082-.364-.075-.567.029-.232.118-.362.386-.397.815-.024.304-.01.373.102.5.106.12.122.124.086.028-.149-.4-.052-.947.202-1.145.109-.085.223-.114.403-.103.305.018.388-.042.171-.124zm.104 1.265c-.055-.055-.381-.04-.522.022-.085.039-.058.044.097.02a.663.663 0 01.34.033c.116.061.173.012.085-.075zm-1.3-5.302a1.739 1.739 0 00-.339-.3c-.067-.033.022.086.2.267.177.18.33.328.34.328.05 0-.006-.082-.2-.295zm-1.43.88c-.03 0-.1.13-.154.291-.053.16-.122.307-.152.325a.125.125 0 00-.054.096c0 .093.172-.065.26-.24.11-.217.164-.472.1-.472zm-1.028 1.404c-.183-.007-.746.485-.753.658-.001.039-.023.323-.048.63-.055.668-.157.904-.656 1.506-.411.496-.43.596-.21 1.14.08.198.17.465.2.594l.056.234.006-.246a1.721 1.721 0 00-.117-.554c-.168-.422-.121-.585.305-1.07.576-.655.66-.863.7-1.715l.033-.72.266-.228c.146-.125.244-.228.218-.229zm-1.522-4.042c-.166-.205-.33-.383-.365-.395-.072-.026.133.279.38.565.092.106.167.247.167.314 0 .075-.183.296-.483.582-.265.253-.464.479-.441.501.094.093 1.042-.944 1.042-1.14 0-.03-.135-.222-.3-.427zm-.916 4.128c-.07.162-.114.503-.144 1.11-.038.76-.07.958-.24 1.48-.186.574-.191.618-.121.935.215.978.223 1.537.031 2.176-.118.394-.495.764-.95.932-.473.175-.718.143-.871-.116-.109-.184-.121-.306-.124-1.198-.003-.988-.005-.998-.218-1.608a7.147 7.147 0 01-.252-.854c-.022-.142.026-.706.115-1.374.084-.623.169-1.26.188-1.416l.035-.284.392.05c.835.106 1.51.007 2.238-.329l.37-.17-.175.216c-.096.119-.22.322-.275.45zm.035-3.858c-.098-.092-.177-.14-.177-.107 0 .06.14.198.28.277.121.069.085.009-.103-.17zm-.567.298c-.11-.126-.2-.205-.2-.176.003.077.339.468.372.433.016-.015-.062-.131-.172-.257zm-.466 5.343c-.065 0-.393.726-.398.879-.002.09.086.396.197.678.154.395.204.478.218.36.01-.087-.06-.308-.162-.508-.225-.44-.225-.565-.003-1 .179-.352.2-.41.148-.41zm-.097-4.618a1.098 1.098 0 00-.477-.502c-.326-.168-.592-.108-1.497.339-.493.243-.853.455-.853.503 0 .045.256.355.568.69.49.522.594.607.753.606a.633.633 0 00.273-.058c.068-.042.042-.056-.105-.057-.225-.001-.586-.304-1.031-.865l-.269-.339.245-.074c.135-.04.531-.206.88-.369.666-.31.782-.323 1.081-.13.19.124.4.568.349.737a1.5 1.5 0 01-.192.338l-.151.204.154-.138c.175-.157.34-.469.335-.63a.934.934 0 00-.063-.255zm-2.254-6.572c-.188-.026-.357-.032-.374-.014-.045.043.47.116.606.085.06-.014-.044-.046-.232-.071zm-1.83-.327c-.89-.25-1.27-.255-2.286-.032-1.153.253-1.346.315-2.017.651-.76.38-1.072.469-2.147.608-.758.098-.792.107-.413.113.568.009 1.466-.133 1.923-.305l.882-.33c.545-.203 2.519-.637 3.118-.686.26-.021.56.009.993.1.342.07.632.119.644.106.013-.012-.301-.113-.697-.225z" fill="#000"/></svg>